<svg width="24" height="20" viewBox="0 0 24 20" fill="none" xmlns="http://www.w3.org/2000/svg">
<g clip-path="url(#clip0)">
<path d="M5.66025 7.2H6.92513C7.338 7.2 7.623 6.79388 7.48238 6.40575C7.2975 5.8965 7.19925 5.3565 7.19925 4.8C7.19925 4.2435 7.2975 3.7035 7.48238 3.19425C7.62338 2.80613 7.338 2.4 6.92513 2.4H5.66025C5.39738 2.4 5.1555 2.56838 5.08238 2.82113C4.899 3.45788 4.8 4.1205 4.8 4.8C4.8 5.4795 4.899 6.14213 5.08275 6.7785C5.1555 7.03125 5.39738 7.2 5.66025 7.2ZM3.372 0.87525C3.5835 0.477 3.29888 0 2.8485 0H1.52363C1.2885 0 1.06837 0.134625 0.970875 0.349125C0.3525 1.70775 0 3.21188 0 4.8C0 5.72813 0.117 7.36238 1.00088 9.25725C1.09913 9.46838 1.31662 9.6 1.54875 9.6H2.85525C3.306 9.6 3.59063 9.12225 3.37838 8.72363C1.51162 5.22413 2.75175 2.043 3.372 0.87525ZM23.0273 0.348375C22.9298 0.13425 22.71 0 22.4749 0H21.1466C20.6974 0 20.4094 0.47475 20.6209 0.871875C21.306 2.15775 22.4366 5.35013 20.6314 8.718C20.4169 9.1185 20.6989 9.6 21.153 9.6H22.4741C22.7093 9.6 22.929 9.46575 23.0265 9.25163C23.6464 7.893 24 6.3885 24 4.8C24 3.2115 23.6468 1.707 23.0273 0.348375ZM18.3398 2.4H17.0749C16.662 2.4 16.377 2.80613 16.5176 3.19425C16.7025 3.7035 16.8008 4.2435 16.8008 4.8C16.8008 5.3565 16.7025 5.8965 16.5176 6.40575C16.3766 6.79388 16.662 7.2 17.0749 7.2H18.3398C18.603 7.2 18.8445 7.03163 18.9176 6.7785C19.1014 6.14213 19.2 5.4795 19.2 4.8C19.2 4.1205 19.101 3.45788 18.9172 2.8215C18.8445 2.56838 18.6026 2.4 18.3398 2.4ZM13.9785 6.1545C14.2429 5.76863 14.3985 5.30288 14.3985 4.8C14.3985 3.47438 13.3249 2.4 12 2.4C10.6755 2.4 9.6015 3.47438 9.6015 4.8C9.6015 5.30288 9.75712 5.76863 10.0215 6.1545L5.12775 17.9074C5.00025 18.213 5.145 18.5644 5.45063 18.6919L6.55725 19.1535C6.86288 19.281 7.21425 19.1363 7.34138 18.8306L9.186 14.4H14.8136L16.6586 18.8306C16.7861 19.1366 17.1371 19.281 17.4428 19.1535L18.5494 18.6919C18.855 18.5644 18.9994 18.213 18.8723 17.9074L13.9785 6.1545ZM10.1858 12L12 7.64288L13.8143 12H10.1858Z" fill="#232323"/>
</g>
<defs>
<clipPath id="clip0">
<rect width="24" height="19.2" fill="white"/>
</clipPath>
</defs>
</svg>
