<svg width="32" height="32" viewBox="0 0 32 32" fill="none" xmlns="http://www.w3.org/2000/svg">
<path d="M26 2H6C5.44687 2 5 2.44687 5 3V10H27V3C27 2.44687 26.5531 2 26 2ZM9 7.25C8.30938 7.25 7.75 6.69063 7.75 6C7.75 5.30938 8.30938 4.75 9 4.75C9.69063 4.75 10.25 5.30938 10.25 6C10.25 6.69063 9.69063 7.25 9 7.25ZM5 29C5 29.5531 5.44687 30 6 30H26C26.5531 30 27 29.5531 27 29V22H5V29ZM9 24.75C9.69063 24.75 10.25 25.3094 10.25 26C10.25 26.6906 9.69063 27.25 9 27.25C8.30938 27.25 7.75 26.6906 7.75 26C7.75 25.3094 8.30938 24.75 9 24.75ZM5 20H27V12H5V20ZM9 14.75C9.69063 14.75 10.25 15.3094 10.25 16C10.25 16.6906 9.69063 17.25 9 17.25C8.30938 17.25 7.75 16.6906 7.75 16C7.75 15.3094 8.30938 14.75 9 14.75Z" fill="white"/>
</svg>
