<svg width="24" height="24" viewBox="0 0 24 24" fill="none" xmlns="http://www.w3.org/2000/svg">
<path d="M4.64467 4.7998H20.5447C22.0447 4.7998 22.8007 5.5078 22.8007 6.9478V17.0518C22.8007 18.4798 22.0447 19.1998 20.5447 19.1998H4.64467C3.14467 19.1998 2.38867 18.4798 2.38867 17.0518V6.9478C2.38867 5.5078 3.14467 4.7998 4.64467 4.7998ZM12.5887 15.1198L20.6767 8.4838C20.9647 8.2438 21.1927 7.6918 20.8327 7.1998C20.4847 6.7078 19.8487 6.6958 19.4287 6.9958L12.5887 11.6278L5.76067 6.9958C5.34067 6.6958 4.70467 6.7078 4.35667 7.1998C3.99667 7.6918 4.22467 8.2438 4.51267 8.4838L12.5887 15.1198Z" fill="white"/>
</svg>
