<svg width="24" height="24" viewBox="0 0 24 24" fill="none" xmlns="http://www.w3.org/2000/svg">
<path d="M19.5 0.75H4.5C2.42888 0.75 0.75 2.42888 0.75 4.5V19.5C0.75 21.5711 2.42888 23.25 4.5 23.25H19.5C21.5711 23.25 23.25 21.5711 23.25 19.5V4.5C23.25 2.42888 21.5711 0.75 19.5 0.75ZM6.75 9.75H4.84125V11.4375H6.75V12.5625H4.84125V15.375H3.75V8.625H6.75V9.75ZM11.4281 15.375H10.2952L9.36862 12.5625H8.94675V15.375H7.875V8.625H9.75C10.7843 8.625 11.625 9.50813 11.625 10.5938C11.625 11.4176 11.1401 12.1253 10.4546 12.4181L11.4281 15.375ZM15.75 9.75H13.8412V11.4375H15.75V12.5625H13.8412V14.25H15.75V15.375H12.75V8.625H15.75V9.75ZM20.25 9.75H18.3412V11.4375H20.25V12.5625H18.3412V14.25H20.25V15.375H17.25V8.625H20.25V9.75Z" fill="white"/>
<path d="M9.75089 9.75H8.94727V11.4375H9.75089C10.1941 11.4375 10.5545 11.0588 10.5545 10.5938C10.5545 10.1287 10.1941 9.75 9.75089 9.75Z" fill="white"/>
</svg>
