<svg width="24" height="24" viewBox="0 0 24 24" fill="none" xmlns="http://www.w3.org/2000/svg">
<path d="M14.4008 2.3999L19.2008 7.1999V21.5999H4.80078V2.3999H14.4008ZM14.4008 7.1999H18.0008L14.4008 3.5999V7.1999ZM16.8008 16.7999V9.5999H7.20078V16.7999H10.8008L9.60078 19.1999H10.8008L12.0008 16.7999L13.2008 19.1999H14.4008L13.2008 16.7999H16.8008ZM9.60078 13.1999C8.94078 13.1999 8.40078 12.6599 8.40078 11.9999C8.40078 11.3399 8.94078 10.7999 9.60078 10.7999C10.2608 10.7999 10.8008 11.3399 10.8008 11.9999C10.8008 12.6599 10.2608 13.1999 9.60078 13.1999ZM15.6008 10.7999V13.1999H12.0008V10.7999H15.6008ZM15.6008 14.3999V15.5999H8.40078V14.3999H15.6008Z" fill="#232323"/>
</svg>
