<svg width="24" height="24" viewBox="0 0 24 24" fill="none" xmlns="http://www.w3.org/2000/svg">
<path d="M12.0266 0C5.25097 0 0 4.95194 0 11.6405C0 15.1389 1.43758 18.1621 3.77758 20.2505C4.18161 20.6139 4.09839 20.8244 4.1671 23.0681C4.17251 23.2252 4.21629 23.3787 4.29462 23.515C4.37295 23.6514 4.48346 23.7665 4.6165 23.8504C4.74954 23.9342 4.90107 23.9842 5.05788 23.996C5.21469 24.0079 5.37202 23.9812 5.51613 23.9182C8.07629 22.7908 8.10919 22.7018 8.54323 22.8198C15.9605 24.8613 24 20.1145 24 11.6405C24 4.95194 18.8027 0 12.0266 0ZM19.2479 8.9579L15.7156 14.55C15.5823 14.7603 15.4069 14.9407 15.2005 15.0801C14.9941 15.2194 14.7612 15.3146 14.5163 15.3597C14.2714 15.4048 14.0198 15.3989 13.7773 15.3422C13.5348 15.2856 13.3067 15.1794 13.1071 15.0305L10.2968 12.9271C10.1711 12.8329 10.0183 12.7819 9.86129 12.7819C9.70425 12.7819 9.55144 12.8329 9.42581 12.9271L5.63371 15.8032C5.12758 16.1869 4.46468 15.5806 4.80581 15.045L8.33806 9.4529C8.4714 9.24257 8.64676 9.06205 8.85314 8.92267C9.05953 8.78329 9.29248 8.68806 9.5374 8.64295C9.78232 8.59784 10.0339 8.60382 10.2764 8.66051C10.5189 8.71721 10.7471 8.8234 10.9466 8.97242L13.756 11.0753C13.8816 11.1695 14.0344 11.2205 14.1915 11.2205C14.3485 11.2205 14.5013 11.1695 14.6269 11.0753L18.421 8.2021C18.9261 7.81597 19.589 8.42177 19.2479 8.9579Z" fill="#1380F6"/>
</svg>
