<svg width="24" height="24" viewBox="0 0 24 24" fill="none" xmlns="http://www.w3.org/2000/svg">
<path d="M21.808 2.19116C20.4856 0.868759 19.3096 1.25876 19.3096 1.25876L8.94282 11.6172L7.19922 16.8L12.3796 15.0552L22.7404 4.68956C22.7404 4.68956 23.1292 3.51356 21.808 2.19116ZM12.7252 13.926L12.16 14.49L10.3924 15.09C10.2555 14.7565 10.0521 14.4544 9.79482 14.202C9.54217 13.9449 9.24011 13.7416 8.90682 13.6044L9.50682 11.8368L10.072 11.2728C10.072 11.2728 11.0032 11.166 11.9164 12.0804C12.8308 12.9936 12.7252 13.926 12.7252 13.926ZM19.1992 20.4H3.59922V4.79996H9.59922L11.9992 2.39996H3.59922C2.27922 2.39996 1.19922 3.47996 1.19922 4.79996V20.4C1.19922 21.72 2.27922 22.8 3.59922 22.8H19.1992C20.5192 22.8 21.5992 21.72 21.5992 20.4V12L19.1992 14.4V20.4Z" fill="white"/>
</svg>
