<svg width="227" height="227" viewBox="0 0 227 227" fill="none" xmlns="http://www.w3.org/2000/svg">
<path d="M65.5509 131.102C101.754 131.102 131.102 101.754 131.102 65.5509C131.102 29.3481 101.754 0 65.5509 0C29.3481 0 0 29.3481 0 65.5509C0 101.754 29.3481 131.102 65.5509 131.102Z" fill="#28A8EA"/>
<path d="M160.486 226.038C196.689 226.038 226.037 196.689 226.037 160.487C226.037 124.284 196.689 94.9358 160.486 94.9358C124.284 94.9358 94.9355 124.284 94.9355 160.487C94.9355 196.689 124.284 226.038 160.486 226.038Z" fill="#28A8EA"/>
<path d="M113.019 221.517C172.941 221.517 221.517 172.941 221.517 113.019C221.517 53.097 172.941 4.52075 113.019 4.52075C53.0977 4.52075 4.52148 53.097 4.52148 113.019C4.52148 172.941 53.0977 221.517 113.019 221.517Z" fill="#28A8EA"/>
<path fill-rule="evenodd" clip-rule="evenodd" d="M84.8809 110.959C80.6394 108.164 77.1007 104.428 74.5409 100.041C72.0678 95.4088 70.8469 90.211 70.999 84.9621C70.8107 78.3004 73.0836 71.8028 77.3835 66.7112C81.851 61.598 87.5935 57.7598 94.0265 55.5871C101.025 53.1159 108.398 51.8753 115.819 51.9204C120.676 51.8744 125.527 52.2465 130.32 53.0327C133.749 53.5627 137.116 54.4322 140.372 55.6284C143.364 56.6415 146.064 58.3663 148.241 60.6544C149.846 62.5364 150.71 64.9385 150.671 67.4113C150.729 68.6959 150.533 69.9792 150.095 71.188C149.657 72.3969 148.985 73.5075 148.117 74.4565C147.295 75.331 146.298 76.0218 145.19 76.4834C144.083 76.9449 142.89 77.1669 141.69 77.1346C140.039 77.1224 138.41 76.757 136.912 76.0629C133.224 74.4121 129.424 73.0218 125.541 71.9022C121.966 70.9604 118.281 70.5031 114.584 70.5428C109.769 70.3642 105.005 71.5801 100.865 74.0444C99.1163 75.1064 97.6851 76.6189 96.7213 78.4236C95.7574 80.2284 95.2963 82.2589 95.3862 84.3029C95.3604 86.9842 96.3798 89.5701 98.2283 91.5125C100.427 93.7917 103.024 95.6489 105.891 96.992C109.105 98.5859 113.897 100.701 120.268 103.337C120.975 103.56 121.663 103.835 122.328 104.161C128.546 106.62 134.506 109.683 140.125 113.307C144.563 116.201 148.306 120.042 151.083 124.554C153.817 129.294 155.185 134.698 155.038 140.168C155.268 146.868 153.348 153.466 149.558 158.996C145.7 164.232 140.363 168.192 134.234 170.368C126.849 173.005 119.046 174.275 111.205 174.117C100.431 174.496 89.7076 172.469 79.8147 168.184C77.2831 167.058 75.0634 165.333 73.3469 163.158C71.9242 161.166 71.1868 158.766 71.2457 156.319C71.1747 155.027 71.3847 153.736 71.8611 152.534C72.3376 151.332 73.0691 150.248 74.0053 149.356C75.9704 147.635 78.522 146.735 81.1321 146.843C84.0371 146.883 86.8902 147.618 89.4535 148.985C92.6383 150.579 95.1514 151.774 96.9928 152.57C99.0961 153.451 101.275 154.14 103.502 154.63C106.248 155.233 109.053 155.523 111.864 155.494C116.834 155.848 121.779 154.529 125.912 151.746C127.46 150.535 128.697 148.973 129.52 147.189C130.344 145.405 130.731 143.451 130.649 141.487C130.655 138.701 129.594 136.017 127.684 133.989C125.159 131.388 122.205 129.242 118.951 127.645C115.105 125.612 109.694 123.14 102.719 120.229C96.478 117.742 90.5022 114.637 84.8808 110.959" fill="white"/>
<path opacity="0.1" fill-rule="evenodd" clip-rule="evenodd" d="M86.0292 3.30006C83.1628 2.34038 80.2321 1.58503 77.2589 1.03969C59.4089 6.76821 43.1826 16.6714 29.9267 29.9273C16.6708 43.1832 6.76758 59.4095 1.03906 77.2595C1.5845 80.2327 2.33985 83.1634 3.29944 86.0298C4.10087 88.625 5.1139 91.15 6.32834 93.5794C10.2552 71.8812 20.7143 51.8994 36.3066 36.3072C51.8988 20.715 71.8806 10.2558 93.5788 6.32896C91.1493 5.11467 88.6243 4.10164 86.0292 3.30006Z" fill="black"/>
<path opacity="0.1" fill-rule="evenodd" clip-rule="evenodd" d="M86.0305 3.30006C66.0093 8.23813 47.7191 18.5557 33.1378 33.1371C18.5564 47.7184 8.23884 66.0086 3.30078 86.0298C4.10221 88.625 5.11524 91.15 6.32968 93.5794C10.2566 71.8812 20.7157 51.8994 36.3079 36.3072C51.9001 20.715 71.8819 10.2558 93.5802 6.32896C91.1506 5.11467 88.6256 4.10164 86.0305 3.30006Z" fill="black"/>
<path opacity="0.1" fill-rule="evenodd" clip-rule="evenodd" d="M222.738 140.008C221.937 137.412 220.924 134.887 219.709 132.458C215.783 154.156 205.324 174.138 189.731 189.73C174.139 205.322 154.157 215.782 132.459 219.708C134.888 220.923 137.413 221.936 140.009 222.737C142.875 223.697 145.806 224.452 148.779 224.998C166.629 219.269 182.855 209.366 196.111 196.11C209.367 182.854 219.27 166.628 224.999 148.778C224.453 145.805 223.698 142.874 222.738 140.008Z" fill="black"/>
<path opacity="0.1" fill-rule="evenodd" clip-rule="evenodd" d="M219.709 132.458C215.783 154.156 205.324 174.138 189.731 189.73C174.139 205.322 154.157 215.782 132.459 219.708C134.888 220.923 137.413 221.936 140.009 222.737C160.03 217.799 178.32 207.482 192.901 192.9C207.483 178.319 217.8 160.029 222.738 140.008C221.937 137.412 220.924 134.887 219.709 132.458Z" fill="black"/>
</svg>
