<svg width="24" height="24" viewBox="0 0 24 24" fill="none" xmlns="http://www.w3.org/2000/svg">
<path d="M22.9981 13.7378C23.0892 13.1628 23.1349 12.5817 23.1349 11.9996C23.1349 5.84967 18.1498 0.864547 11.9996 0.864547C11.4095 0.864547 10.8281 0.913076 10.262 1.00161C9.23636 0.367208 8.02594 0 6.72888 0C3.01257 0 0 3.01231 0 6.72888C0 8.02568 0.367472 9.23504 1.00161 10.2628C0.913892 10.8303 0.865603 11.4081 0.865603 11.9999C0.865603 18.1501 5.85073 23.1338 11.9993 23.1338C12.59 23.1338 13.1713 23.0882 13.7375 22.9989C14.7642 23.6323 15.9735 24.0005 17.2706 24.0005C20.9877 24.0005 24 20.9874 24 17.2709C24.0003 15.9738 23.6331 14.7644 22.9981 13.7378ZM17.2863 17.0639C16.8151 17.7421 16.1234 18.2719 15.2191 18.653C14.313 19.0349 13.2423 19.225 12.0057 19.225C10.5236 19.225 9.29636 18.9658 8.32782 18.4421C7.64114 18.0671 7.08275 17.5639 6.6534 16.9365C6.22326 16.3087 6.00512 15.694 6.00512 15.0946C6.00512 14.741 6.14008 14.4332 6.40248 14.1826C6.6678 13.93 7.0094 13.8034 7.41261 13.8034C7.74303 13.8034 8.02676 13.9028 8.25769 14.0999C8.48702 14.2969 8.67929 14.5834 8.83663 14.9615C9.02516 15.3996 9.22998 15.7658 9.44783 16.0578C9.66436 16.3463 9.96917 16.5874 10.3638 16.7759C10.7543 16.965 11.2737 17.0594 11.9239 17.0594C12.8135 17.0594 13.5327 16.8671 14.0828 16.4874C14.6359 16.1045 14.9018 15.6383 14.9018 15.0748C14.9018 14.6258 14.7583 14.2687 14.4647 13.9906C14.1684 13.709 13.7855 13.4943 13.3105 13.3447C12.8337 13.1935 12.1935 13.0329 11.3911 12.8639C10.3137 12.6289 9.41265 12.3551 8.68303 12.0409C7.95236 11.7252 7.37049 11.294 6.93927 10.7492C6.507 10.199 6.29155 9.5153 6.29155 8.70542C6.29155 7.93316 6.519 7.24247 6.97448 6.6414C7.42968 6.03872 8.08835 5.57739 8.94704 5.25607C9.80278 4.93472 10.8102 4.77418 11.9644 4.77418C12.8873 4.77418 13.6857 4.88084 14.3615 5.09339C15.0356 5.30752 15.5972 5.58994 16.0463 5.94433C16.493 6.29793 16.8212 6.67099 17.0293 7.06247C17.237 7.45502 17.3418 7.83848 17.3418 8.21262C17.3418 8.56063 17.2069 8.87609 16.9442 9.15263C16.6813 9.42971 16.3452 9.57076 15.9527 9.56944C15.5988 9.56944 15.3212 9.48784 15.1287 9.31504C14.9412 9.14783 14.7444 8.88171 14.5314 8.51075C14.2623 7.99316 13.9399 7.58995 13.5647 7.30142C13.1996 7.01847 12.5972 6.87102 11.7591 6.87286C10.9836 6.87286 10.363 7.03127 9.89477 7.34114C9.42357 7.65607 9.19823 8.02143 9.19717 8.44943C9.19796 8.71769 9.27503 8.94382 9.43024 9.13717C9.58783 9.33237 9.80705 9.50142 10.0889 9.64411C10.3708 9.7889 10.6575 9.90091 10.9457 9.98144C11.2372 10.0641 11.7209 10.1836 12.3932 10.3417C13.2364 10.5236 14.0015 10.7265 14.6887 10.9478C15.3746 11.1703 15.9599 11.4385 16.4436 11.758C16.9311 12.0767 17.3122 12.4828 17.5842 12.9735C17.8578 13.4649 17.9943 14.0652 17.9943 14.7714C17.9954 15.622 17.7583 16.3868 17.2863 17.0639Z" fill="#1380F6"/>
</svg>
