<svg width="24" height="24" viewBox="0 0 24 24" fill="none" xmlns="http://www.w3.org/2000/svg">
<g clip-path="url(#clip0)">
<path d="M23.9745 21.4123C23.9747 21.7518 23.908 22.0881 23.7782 22.4019C23.6483 22.7156 23.458 23.0007 23.2179 23.2409C22.9779 23.4811 22.6928 23.6716 22.3791 23.8015C22.0654 23.9315 21.7292 23.9983 21.3896 23.9983H2.58337C1.89789 23.9979 1.24063 23.7252 0.756164 23.2403C0.271698 22.7553 -0.00029821 22.0978 2.45357e-07 21.4123V2.60978C-9.92569e-05 1.92446 0.271997 1.26715 0.756452 0.782415C1.24091 0.297679 1.89805 0.0252007 2.58337 0.0249024H21.3896C21.7291 0.0248531 22.0652 0.0916793 22.3789 0.221564C22.6925 0.351449 22.9775 0.541847 23.2175 0.781885C23.4576 1.02192 23.648 1.3069 23.7778 1.62053C23.9077 1.93416 23.9745 2.27031 23.9745 2.60978V21.4123Z" fill="white"/>
<path d="M17.4292 5.07129H6.53922C6.14239 5.07129 5.76181 5.22893 5.48121 5.50953C5.20061 5.79013 5.04297 6.17071 5.04297 6.56754V17.4575C5.04297 17.8545 5.20056 18.2352 5.48112 18.5161C5.76168 18.7969 6.14225 18.9549 6.53922 18.9553H17.4292C17.8262 18.9549 18.2067 18.7969 18.4872 18.5161C18.7677 18.2352 18.9252 17.8545 18.9251 17.4575V6.56754C18.9251 6.17077 18.7675 5.79025 18.487 5.50966C18.2065 5.22907 17.826 5.07139 17.4292 5.07129Z" fill="#232323"/>
</g>
<defs>
<clipPath id="clip0">
<rect width="24" height="24" fill="white"/>
</clipPath>
</defs>
</svg>
