<svg width="24" height="24" viewBox="0 0 24 24" fill="none" xmlns="http://www.w3.org/2000/svg">
<g clip-path="url(#clip0)">
<path d="M15.4504 12.3003L14.1004 13.6503L15.4504 15.0003L13.6504 16.8003L20.1004 23.2503C21.0004 24.1503 22.3504 24.1503 23.2504 23.2503C24.1504 22.3503 24.1504 21.0003 23.2504 20.1003L15.4504 12.3003ZM21.3004 22.5003C20.7004 22.5003 20.1004 22.0503 20.1004 21.3003C20.1004 20.7003 20.5504 20.1003 21.3004 20.1003C22.0504 20.1003 22.5004 20.5503 22.5004 21.3003C22.5004 22.0503 22.0504 22.5003 21.3004 22.5003Z" fill="#232323"/>
<path d="M5.4 12L6.75 11.1L9 8.55L10.35 9.9L11.7 8.55L11.55 8.4C11.85 7.65 12 6.9 12 6C12 2.7 9.3 0 6 0C5.1 0 4.35 0.15 3.6 0.45L7.95 4.8L4.8 7.95L0.45 3.6C0.15 4.35 0 5.1 0 6C0 9.15 2.4 11.55 5.4 12Z" fill="#232323"/>
<path d="M11.9992 16.1999L13.3492 14.9999L11.9992 13.6499L20.5492 5.0999L22.3492 4.4999L23.9992 1.1999L22.9492 0.149902L19.4992 1.6499L18.7492 3.4499L10.3492 11.9999L8.99922 10.6499L7.79922 11.9999C7.79922 11.9999 8.99922 12.8999 7.64922 14.2499C6.89922 14.9999 5.69922 14.0999 3.44922 16.3499L0.299219 19.4999C0.299219 19.4999 -0.600781 20.9999 1.19922 22.7999C2.99922 24.5999 4.49922 23.6999 4.49922 23.6999L7.64922 20.5499C9.74922 18.4499 8.99922 17.0999 9.59922 16.4999C10.9492 15.1499 11.9992 16.1999 11.9992 16.1999ZM7.34922 15.5999L8.39922 16.6499L2.69922 22.3499L1.64922 21.2999L7.34922 15.5999Z" fill="#232323"/>
</g>
<defs>
<clipPath id="clip0">
<rect width="24" height="24" fill="white"/>
</clipPath>
</defs>
</svg>
