<svg width="24" height="20" viewBox="0 0 24 20" fill="none" xmlns="http://www.w3.org/2000/svg">
<g clip-path="url(#clip0)">
<path d="M23.6475 13.6838L20.2612 10.3013C19.8113 9.85125 19.2 9.6 18.5625 9.6H15.5888C14.925 9.6 14.3888 10.1363 14.3888 10.8V13.77C14.3888 14.4075 14.64 15.015 15.09 15.465L18.4763 18.8475C18.945 19.3163 19.7063 19.3163 20.175 18.8475L23.6438 15.3788C24.1163 14.91 24.1163 14.1525 23.6475 13.6838ZM16.7925 12.8963C16.2938 12.8963 15.8925 12.495 15.8925 11.9963C15.8925 11.4975 16.2938 11.0963 16.7925 11.0963C17.2913 11.0963 17.6925 11.4975 17.6925 11.9963C17.6925 12.4913 17.2913 12.8963 16.7925 12.8963ZM8.4 9.59625C11.0513 9.59625 13.2 7.4475 13.2 4.79625C13.2 2.14875 11.0513 0 8.4 0C5.74875 0 3.6 2.14875 3.6 4.8C3.6 7.4475 5.74875 9.59625 8.4 9.59625ZM13.1925 13.7663V11.025C12.735 10.89 12.2588 10.7925 11.76 10.7925H11.1337C10.3013 11.175 9.375 11.3925 8.4 11.3925C7.425 11.3925 6.5025 11.175 5.66625 10.7925H5.04C2.2575 10.7963 0 13.0538 0 15.8363V17.3962C0 18.39 0.80625 19.1963 1.8 19.1963H15C15.5813 19.1963 16.0912 18.915 16.4213 18.4875L14.2463 16.3125C13.5675 15.6338 13.1925 14.73 13.1925 13.7663Z" fill="#232323"/>
</g>
<defs>
<clipPath id="clip0">
<rect width="24" height="19.2" fill="white"/>
</clipPath>
</defs>
</svg>
