<svg width="210" height="105" viewBox="0 0 210 105" fill="none" xmlns="http://www.w3.org/2000/svg">
<path d="M205.459 84.9593C205.459 85.0135 205.456 85.0568 205.451 85.0948C205.448 85.1327 205.44 85.1625 205.432 85.1842C205.424 85.2086 205.41 85.2249 205.397 85.2357C205.383 85.2466 205.37 85.252 205.353 85.252H204.467V88.1008C204.467 88.1197 204.462 88.136 204.451 88.1496C204.437 88.1658 204.418 88.1767 204.391 88.1848C204.364 88.1956 204.326 88.2011 204.28 88.2065C204.234 88.2119 204.177 88.2146 204.106 88.2146C204.039 88.2146 203.979 88.2119 203.933 88.2065C203.887 88.2011 203.849 88.1956 203.822 88.1848C203.795 88.1767 203.776 88.1658 203.765 88.1496C203.751 88.136 203.746 88.1197 203.746 88.1008V85.252H202.862C202.843 85.252 202.827 85.2466 202.814 85.2357C202.803 85.2249 202.792 85.2086 202.781 85.1842C202.773 85.1625 202.765 85.1327 202.762 85.0948C202.757 85.0568 202.754 85.0135 202.754 84.9593C202.754 84.905 202.757 84.859 202.762 84.821C202.765 84.7831 202.773 84.7505 202.781 84.7289C202.792 84.7045 202.803 84.6882 202.814 84.6801C202.827 84.6692 202.843 84.6638 202.862 84.6638H205.353C205.37 84.6638 205.383 84.6692 205.397 84.6801C205.41 84.6882 205.424 84.7045 205.432 84.7289C205.44 84.7505 205.448 84.7831 205.451 84.821C205.456 84.859 205.459 84.905 205.459 84.9593Z" fill="#7C529E"/>
<path d="M209.995 88.1013C209.995 88.1202 209.99 88.1365 209.981 88.1501C209.971 88.1663 209.952 88.1772 209.925 88.1853C209.9 88.1961 209.865 88.2016 209.822 88.207C209.775 88.2124 209.721 88.2151 209.653 88.2151C209.588 88.2151 209.534 88.2124 209.491 88.207C209.445 88.2016 209.412 88.1961 209.385 88.1853C209.361 88.1772 209.342 88.1663 209.331 88.1501C209.32 88.1365 209.315 88.1202 209.315 88.1013V85.2254H209.309L208.285 88.0985C208.277 88.1229 208.266 88.1419 208.249 88.1582C208.233 88.1717 208.211 88.1853 208.182 88.1934C208.155 88.2043 208.119 88.2097 208.076 88.2124C208.03 88.2151 207.978 88.2151 207.916 88.2151C207.854 88.2151 207.802 88.2151 207.759 88.2097C207.715 88.2043 207.678 88.1961 207.65 88.188C207.621 88.1772 207.599 88.1663 207.583 88.1501C207.566 88.1365 207.556 88.1175 207.55 88.0985L206.561 85.2254H206.555V88.1013C206.555 88.1202 206.55 88.1365 206.542 88.1501C206.531 88.1663 206.512 88.1772 206.485 88.1853C206.458 88.1961 206.423 88.2016 206.379 88.207C206.336 88.2124 206.282 88.2151 206.214 88.2151C206.149 88.2151 206.095 88.2124 206.051 88.207C206.008 88.2016 205.973 88.1961 205.945 88.1853C205.918 88.1772 205.899 88.1663 205.891 88.1501C205.88 88.1365 205.875 88.1202 205.875 88.1013V84.9516C205.875 84.8595 205.899 84.789 205.948 84.7375C206 84.6887 206.065 84.6643 206.146 84.6643H206.615C206.699 84.6643 206.772 84.6724 206.832 84.686C206.891 84.6995 206.943 84.7212 206.986 84.7537C207.032 84.7863 207.068 84.8269 207.097 84.8784C207.125 84.9299 207.152 84.995 207.173 85.0709L207.938 87.177H207.949L208.74 85.0763C208.764 85.0004 208.792 84.9353 208.819 84.8838C208.848 84.8296 208.881 84.789 208.916 84.7537C208.954 84.7212 209 84.6995 209.049 84.686C209.101 84.6724 209.16 84.6643 209.228 84.6643H209.71C209.759 84.6643 209.803 84.6697 209.838 84.6833C209.873 84.6968 209.903 84.7158 209.925 84.7402C209.949 84.7646 209.965 84.7944 209.976 84.8296C209.99 84.8649 209.995 84.9055 209.995 84.9516V88.1013Z" fill="#7C529E"/>
<path d="M36.5552 72.8245C36.5552 72.8245 29.89 72.0195 25.2902 70.7022C20.8639 69.515 8.48486 66.3843 6.33811 50.7065C5.79058 46.8819 5.63065 43.4233 5.58729 40.3387C5.44363 30.2094 7.45485 23.9426 10.9677 19.6789C11.1656 19.3483 13.9954 15.6782 20.9181 12.9487C26.4693 10.2056 51.3087 8.02905 71.8302 6.97464C85.3585 6.28075 102.05 6.13709 120.056 6.51928C134.398 6.82286 149.56 7.35413 164.707 8.94521C189.297 11.7045 193.807 15.5915 197.448 20.1126C199.448 22.9695 200.557 26.6369 201.6 32.676C202.145 37.601 202.001 42.5261 201.364 47.5704C199.478 63.1289 195.686 71.0112 158.237 74.009C155.014 74.2286 151.496 74.627 147.733 74.7192C147.733 74.7192 132.142 75.5812 113.529 75.8576C100.033 76.0582 84.9248 75.8224 73.0472 75.3887C68.0138 75.2017 61.8907 74.768 61.8907 74.768C61.8907 74.768 49.7041 90.5569 47.2212 93.9505C44.7411 97.336 42.4805 99.8947 39.1953 98.8701C37.2329 98.2575 36.6664 96.2436 36.5552 93.3542C36.4603 90.9066 36.5552 72.8245 36.5552 72.8245Z" fill="#7C529E"/>
<path d="M56.2256 80.3036C60.042 80.534 65.6745 80.7996 70.9465 81.0219C83.3879 81.5423 99.2121 81.8323 113.348 81.6101C133.21 81.7131 156.803 79.7398 160.18 79.4877C200.51 78.043 206.68 64.0918 206.793 41.776C206.867 27.4887 204.633 20.6663 201.296 16.4324C197.488 11.136 192.766 6.58228 167.011 3.32963C151.146 1.45122 135.265 0.814252 120.243 0.445621C101.383 -0.015174 83.8975 0.136613 69.7241 0.936224C48.2322 2.15326 22.211 4.67677 16.3915 7.88063C9.14077 11.0709 6.17273 15.3644 5.96402 15.752C2.2831 20.7367 0.0170882 28.1311 0.160747 39.9897C0.204116 43.6001 0.274592 47.6876 0.843805 52.1655C3.08 70.5185 16.405 74.5952 21.0428 75.9911C32.2725 79.4714 52.4552 80.0759 56.2256 80.3036Z" fill="#7C529E"/>
<path d="M75.9664 57.5069L64.7122 29.4663C64.5604 29.114 64.4438 28.7318 64.3598 28.3198C64.2731 27.9105 64.2324 27.4931 64.2324 27.0729C64.2324 25.883 64.6471 24.8936 65.4738 24.1049C66.3006 23.3161 67.3414 22.9204 68.591 22.9204C69.5044 22.9204 70.2525 23.1941 70.8353 23.739C71.4181 24.2838 71.952 25.2108 72.4427 26.52L80.0782 47.1445L87.4482 26.8236C87.9388 25.3626 88.4945 24.3461 89.1206 23.7769C89.744 23.2077 90.5735 22.9204 91.6035 22.9204C92.872 22.9204 93.8668 23.2646 94.5959 23.9531C95.3196 24.6416 95.6855 25.5794 95.6855 26.7721C95.6855 27.241 95.6368 27.7262 95.5446 28.2195C95.4524 28.7155 95.3115 29.198 95.1272 29.6669L84.2281 57.1789C83.7375 58.4203 83.1628 59.3121 82.5042 59.8488C81.8455 60.3855 81.0025 60.6538 79.9698 60.6538C79.0076 60.6538 78.2188 60.4099 77.6008 59.922C76.9828 59.4368 76.438 58.6318 75.9664 57.5069Z" fill="white"/>
<path d="M105.614 55.0543C105.614 56.9598 105.302 58.372 104.678 59.2855C104.058 60.1989 103.098 60.6543 101.805 60.6543C100.496 60.6543 99.5203 60.1935 98.8834 59.2719C98.2437 58.3504 97.9238 56.9463 97.9238 55.0543V39.588C97.9238 37.696 98.241 36.2947 98.8725 35.3812C99.5014 34.4678 100.48 34.0097 101.805 34.0097C103.098 34.0097 104.058 34.4678 104.678 35.3812C105.302 36.2947 105.614 37.696 105.614 39.588V55.0543Z" fill="white"/>
<path d="M117.262 34.2266C118.156 33.4486 119.14 32.8659 120.214 32.4783C121.287 32.0907 122.45 31.8955 123.7 31.8955C127.231 31.8955 130.208 33.2941 132.633 36.0887C135.057 38.886 136.271 42.3799 136.271 46.5704C136.271 50.5223 135.03 53.897 132.544 56.6942C130.061 59.4915 127.112 60.8902 123.7 60.8902C122.347 60.8902 121.106 60.6516 119.975 60.18C118.842 59.7056 117.869 59.0145 117.059 58.101C116.552 58.9792 115.974 59.6379 115.324 60.077C114.673 60.5161 113.95 60.7384 113.156 60.7384C111.77 60.7384 110.743 60.2478 110.076 59.2665C109.41 58.288 109.076 56.7918 109.076 54.7806V28.8814C109.076 26.8539 109.41 25.3495 110.076 24.371C110.743 23.3898 111.77 22.9019 113.156 22.9019C114.541 22.9019 115.573 23.3898 116.248 24.371C116.923 25.3495 117.262 26.8539 117.262 28.8814V34.2266ZM116.639 46.4213C116.639 48.6629 117.183 50.4654 118.278 51.8234C119.371 53.1841 120.78 53.8644 122.51 53.8644C124.217 53.8644 125.624 53.1732 126.725 51.7963C127.828 50.4193 128.381 48.6277 128.381 46.4213C128.381 44.1797 127.833 42.3609 126.738 40.965C125.646 39.569 124.236 38.8697 122.51 38.8697C120.78 38.8697 119.371 39.5636 118.278 40.9514C117.183 42.3392 116.639 44.1607 116.639 46.4213Z" fill="white"/>
<path d="M145.461 48.6597C145.648 50.1912 146.746 51.3892 147.827 52.2485C148.909 53.1077 150.337 53.536 152.11 53.536C153.65 53.536 155.36 53.0941 157.244 52.2105C159.128 51.3242 160.288 50.8823 160.729 50.8823C161.692 50.8823 162.478 51.1778 163.085 51.7687C163.695 52.3569 163.998 53.1158 163.998 54.0401C163.998 55.7938 162.773 57.3741 160.323 58.7782C157.873 60.1849 154.991 60.8897 151.682 60.8897C147.643 60.8897 144.271 59.5154 141.569 56.7696C138.864 54.0239 137.514 50.5788 137.514 46.4371C137.514 42.2764 138.826 38.8069 141.455 36.0259C144.081 33.2476 147.356 31.8571 151.275 31.8571C155.059 31.8571 158.228 33.1635 160.778 35.7738C163.329 38.384 164.606 41.5771 164.606 45.3501C164.606 46.5807 164.326 47.4372 163.771 47.9279C163.212 48.4158 162.139 48.6597 160.551 48.6597H145.461ZM145.133 43.881H157.16C157.049 42.3631 156.436 40.7829 155.319 39.7637C154.205 38.7473 152.877 38.235 151.335 38.235C149.811 38.235 148.348 38.7174 147.253 39.6797C146.155 40.6446 145.45 42.252 145.133 43.881Z" fill="white"/>
<path d="M166.881 54.6618V38.2142C166.881 36.203 167.214 34.7122 167.881 33.7391C168.551 32.7687 169.575 32.2836 170.96 32.2836C171.79 32.2836 172.524 32.4977 173.167 32.9287C173.809 33.3596 174.376 34.0156 174.863 34.8938C175.709 33.9803 176.604 33.2919 177.552 32.8284C178.498 32.3622 179.452 32.1318 180.415 32.1318C181.548 32.1318 182.523 32.5329 183.342 33.3352C184.161 34.1376 184.573 35.089 184.573 36.1867C184.573 37.8239 183.068 39.1927 180.06 40.2905C178.978 40.6808 178.168 41.0006 177.628 41.2554C176.595 41.746 175.912 42.2909 175.574 42.8899C175.235 43.4889 175.067 44.5759 175.067 46.1453V54.6618C175.067 56.673 174.728 58.1692 174.053 59.1477C173.378 60.1289 172.348 60.6168 170.96 60.6168C169.575 60.6168 168.551 60.1289 167.881 59.1477C167.214 58.1692 166.881 56.673 166.881 54.6618Z" fill="white"/>
<path d="M97.6758 27.1727C97.6758 25.9991 98.0986 24.9962 98.9443 24.1586C99.7873 23.3211 100.804 22.9009 101.986 22.9009C103.154 22.9009 104.154 23.3211 104.983 24.1586C105.813 24.9962 106.228 25.9991 106.228 27.1727C106.228 28.36 105.818 29.3656 104.994 30.1869C104.173 31.0109 103.17 31.4229 101.986 31.4229C100.771 31.4229 99.7493 31.0109 98.9199 30.1869C98.0905 29.3656 97.6758 28.36 97.6758 27.1727Z" fill="white"/>
<path d="M49.4372 39.8515C48.9656 39.8515 48.5699 39.4801 48.5455 39.0031C48.3964 35.9727 46.9679 34.4873 44.0514 34.3301C43.5581 34.303 43.1813 33.8828 43.2084 33.3895C43.2355 32.8989 43.6529 32.5167 44.1463 32.5465C47.9952 32.7525 50.1338 34.9562 50.329 38.9136C50.3534 39.4069 49.9739 39.8271 49.4833 39.8515C49.467 39.8515 49.4535 39.8515 49.4372 39.8515Z" fill="white"/>
<path d="M54.0219 41.3867C54.0137 41.3867 54.0083 41.3867 54.0002 41.3867C53.5068 41.3759 53.1165 40.9666 53.1274 40.4733C53.1978 37.4212 52.3251 34.9492 50.4629 32.9163C48.6089 30.8888 46.0637 29.7829 42.6782 29.5335C42.1876 29.4983 41.8163 29.07 41.8542 28.5794C41.8895 28.0861 42.3177 27.7175 42.8083 27.7527C46.6167 28.0319 49.6335 29.3628 51.7802 31.7101C53.9378 34.0656 54.9922 37.0255 54.9136 40.5139C54.9028 40.9991 54.5043 41.3867 54.0219 41.3867Z" fill="white"/>
<path d="M58.7145 43.2235C58.2239 43.2235 57.8254 42.8278 57.8227 42.3372C57.7793 36.8754 56.2072 32.7066 53.0142 29.5868C49.8591 26.5157 45.8719 24.9382 41.1637 24.9057C40.6704 24.9003 40.2746 24.4991 40.2774 24.0058C40.2801 23.5152 40.6812 23.1194 41.1691 23.1194H41.1773C46.3625 23.1547 50.7644 24.903 54.261 28.3101C57.7631 31.7281 59.5629 36.4445 59.6062 42.3236C59.6116 42.8169 59.2159 43.2208 58.7226 43.2235H58.7145Z" fill="white"/>
<path d="M44.2778 50.9214C44.2778 50.9214 45.5328 51.0325 46.2104 50.1949L47.5277 48.5361C48.162 47.7148 49.6989 47.1889 51.2005 48.0265C52.0381 48.5008 53.537 49.4278 54.4775 50.119C55.4777 50.8536 57.5188 52.5531 57.5242 52.5585C58.4973 53.3798 58.7223 54.586 58.0609 55.8572C58.0609 55.8627 58.0527 55.8762 58.0527 55.8844C57.3724 57.0851 56.4617 58.2127 55.3097 59.2617C55.2988 59.2671 55.2988 59.2752 55.2853 59.2807C54.342 60.0694 53.4123 60.5167 52.4989 60.6278C52.3904 60.6495 52.2576 60.6576 52.0923 60.6522C51.6965 60.6549 51.3008 60.598 50.9105 60.4706L50.8807 60.4272C49.4739 60.0315 47.1293 59.0394 43.2207 56.8845C40.6809 55.4832 38.5694 54.0547 36.7858 52.6317C35.8453 51.889 34.8776 51.046 33.8937 50.0675C33.8612 50.035 33.8286 50.0025 33.7961 49.97C33.7636 49.9374 33.7311 49.9049 33.6985 49.8724C33.6633 49.8398 33.6335 49.8073 33.601 49.7721C33.5684 49.7423 33.5359 49.7097 33.5034 49.6772C32.5249 48.6933 31.6792 47.7229 30.9365 46.7824C29.5135 44.9988 28.085 42.8873 26.6864 40.3475C24.5315 36.4416 23.5394 34.0943 23.1437 32.6903L23.1003 32.6604C22.9729 32.2701 22.9133 31.8744 22.9187 31.4759C22.9106 31.3106 22.9214 31.1778 22.9431 31.0693C23.0515 30.1586 23.4988 29.2289 24.2875 28.2829C24.2957 28.2721 24.3011 28.2721 24.3065 28.2585C25.3582 27.1065 26.4831 26.1958 27.6866 25.5154C27.692 25.5154 27.7055 25.51 27.711 25.51C28.9849 24.8487 30.1911 25.0709 31.0097 26.0467C31.0178 26.0521 32.7173 28.0932 33.4492 29.0907C34.1431 30.0312 35.0701 31.5301 35.5417 32.3677C36.3793 33.872 35.8561 35.4089 35.0321 36.0405L33.3733 37.3605C32.5384 38.0354 32.6468 39.2904 32.6468 39.2904C32.6468 39.2904 35.0999 48.5794 44.2778 50.9214Z" fill="white"/>
<path d="M82.7772 91.6944C81.8746 91.6944 81.1753 92.0333 80.6819 92.7109C80.1859 93.3885 79.9392 94.3345 79.9392 95.5461C79.9392 98.0669 80.8852 99.3273 82.7772 99.3273C83.5714 99.3273 84.5336 99.1295 85.6612 98.731V100.742C84.7342 101.13 83.6988 101.322 82.5522 101.322C80.9069 101.322 79.6492 100.824 78.7791 99.8261C77.9091 98.8286 77.4727 97.3974 77.4727 95.5299C77.4727 94.3535 77.6868 93.3262 78.1151 92.4398C78.5433 91.5562 79.1559 90.8786 79.9582 90.4069C80.7605 89.9353 81.6984 89.6995 82.7772 89.6995C83.875 89.6995 84.9781 89.9651 86.0868 90.4964L85.3143 92.4453C84.8914 92.2447 84.4659 92.0685 84.0376 91.9194C83.6093 91.7703 83.1892 91.6944 82.7772 91.6944Z" fill="#7C529E"/>
<path d="M95.7372 96.8314C95.7372 98.2381 95.3659 99.3386 94.6232 100.133C93.8805 100.927 92.8478 101.325 91.5223 101.325C90.6929 101.325 89.9611 101.144 89.3268 100.778C88.6925 100.415 88.2046 99.8943 87.8658 99.2139C87.5243 98.5336 87.3535 97.7394 87.3535 96.8314C87.3535 95.4192 87.7221 94.3214 88.4594 93.5381C89.1967 92.752 90.2348 92.3617 91.5684 92.3617C92.3978 92.3617 93.1324 92.5433 93.7667 92.9038C94.3982 93.2643 94.8861 93.782 95.2276 94.4569C95.5665 95.1319 95.7372 95.9233 95.7372 96.8314ZM89.7605 96.8314C89.7605 97.6879 89.8987 98.333 90.1806 98.7721C90.4625 99.2112 90.9206 99.4308 91.5549 99.4308C92.1837 99.4308 92.6336 99.2112 92.9101 98.7775C93.1866 98.3411 93.3248 97.6933 93.3248 96.8314C93.3248 95.9748 93.1866 95.3352 92.9074 94.9069C92.6282 94.4786 92.1729 94.2645 91.5386 94.2645C90.9097 94.2645 90.4544 94.4759 90.1779 94.9015C89.8987 95.327 89.7605 95.9694 89.7605 96.8314Z" fill="#7C529E"/>
<path d="M105.667 101.168H103.309V96.1184C103.309 95.4949 103.198 95.026 102.976 94.7143C102.754 94.4026 102.401 94.2481 101.916 94.2481C101.257 94.2481 100.78 94.4676 100.485 94.9068C100.192 95.3486 100.046 96.0804 100.046 97.0996V101.168H97.6875V92.5215H99.4873L99.8044 93.6274H99.9372C100.2 93.21 100.561 92.8955 101.024 92.6814C101.485 92.4673 102.011 92.3588 102.596 92.3588C103.602 92.3588 104.366 92.6326 104.887 93.1747C105.407 93.7195 105.667 94.5056 105.667 95.5302V101.168Z" fill="#7C529E"/>
<path d="M116.076 101.168H113.717V96.1184C113.717 95.4949 113.606 95.026 113.384 94.7143C113.162 94.4026 112.809 94.2481 112.324 94.2481C111.665 94.2481 111.188 94.4676 110.893 94.9068C110.6 95.3486 110.454 96.0804 110.454 97.0996V101.168H108.096V92.5215H109.896L110.213 93.6274H110.345C110.608 93.21 110.972 92.8955 111.432 92.6814C111.893 92.4673 112.419 92.3588 113.004 92.3588C114.01 92.3588 114.774 92.6326 115.295 93.1747C115.815 93.7195 116.076 94.5056 116.076 95.5302V101.168Z" fill="#7C529E"/>
<path d="M122.416 101.322C121.023 101.322 119.936 100.937 119.153 100.17C118.37 99.4032 117.977 98.3136 117.977 96.9068C117.977 95.4567 118.34 94.3372 119.063 93.5457C119.787 92.7543 120.79 92.3585 122.069 92.3585C123.289 92.3585 124.241 92.7082 124.921 93.4048C125.601 94.0987 125.943 95.0609 125.943 96.2888V97.4327H120.367C120.392 98.1022 120.592 98.6253 120.964 99.0021C121.335 99.3788 121.855 99.5659 122.525 99.5659C123.045 99.5659 123.539 99.5116 124.002 99.4032C124.466 99.2975 124.951 99.124 125.455 98.8855V100.712C125.043 100.918 124.601 101.07 124.132 101.17C123.663 101.271 123.091 101.322 122.416 101.322ZM122.083 94.0363C121.584 94.0363 121.191 94.1963 120.909 94.5134C120.625 94.8305 120.462 95.2805 120.421 95.8633H123.731C123.72 95.2805 123.568 94.8305 123.276 94.5134C122.98 94.1963 122.584 94.0363 122.083 94.0363Z" fill="#7C529E"/>
<path d="M131.372 101.322C128.68 101.322 127.336 99.845 127.336 96.8905C127.336 95.4214 127.702 94.2993 128.434 93.5241C129.166 92.7461 130.215 92.3585 131.581 92.3585C132.581 92.3585 133.478 92.5564 134.272 92.9467L133.576 94.7709C133.204 94.6218 132.86 94.4998 132.54 94.405C132.22 94.3101 131.9 94.2613 131.581 94.2613C130.353 94.2613 129.74 95.1341 129.74 96.8743C129.74 98.5657 130.353 99.4113 131.581 99.4113C132.033 99.4113 132.453 99.3517 132.841 99.2297C133.229 99.1105 133.614 98.9207 134.001 98.6632V100.68C133.619 100.924 133.234 101.089 132.846 101.184C132.456 101.276 131.966 101.322 131.372 101.322Z" fill="#7C529E"/>
<path d="M139.647 99.4445C140.059 99.4445 140.555 99.355 141.132 99.1734V100.93C140.544 101.193 139.823 101.323 138.966 101.323C138.023 101.323 137.335 101.084 136.906 100.607C136.475 100.13 136.258 99.4174 136.258 98.4633V94.2945H135.131V93.297L136.429 92.5082L137.11 90.684H138.619V92.5245H141.04V94.2945H138.619V98.4633C138.619 98.7967 138.711 99.046 138.901 99.206C139.088 99.3659 139.338 99.4445 139.647 99.4445Z" fill="#7C529E"/>
<path d="M142.547 100.062C142.547 99.6285 142.663 99.3006 142.894 99.081C143.127 98.8588 143.466 98.7476 143.908 98.7476C144.336 98.7476 144.667 98.8615 144.902 99.0891C145.135 99.3141 145.255 99.6394 145.255 100.062C145.255 100.469 145.135 100.791 144.897 101.024C144.661 101.26 144.33 101.377 143.908 101.377C143.474 101.377 143.14 101.263 142.902 101.033C142.666 100.802 142.547 100.48 142.547 100.062Z" fill="#7C529E"/>
<path d="M154.053 101.168H151.695V89.8624H158.176V91.8276H154.053V94.7414H157.889V96.6984H154.053V101.168Z" fill="#7C529E"/>
<path d="M165.028 92.3607C165.348 92.3607 165.613 92.3851 165.825 92.4312L165.646 94.643C165.456 94.5915 165.223 94.5643 164.949 94.5643C164.198 94.5643 163.61 94.7568 163.19 95.1444C162.77 95.532 162.561 96.0714 162.561 96.768V101.17H160.203V92.5233H161.989L162.336 93.9762H162.453C162.721 93.4937 163.082 93.1007 163.54 92.8052C163.995 92.5098 164.491 92.3607 165.028 92.3607Z" fill="#7C529E"/>
<path d="M171.307 101.323C169.914 101.323 168.827 100.938 168.044 100.171C167.26 99.4043 166.867 98.3147 166.867 96.9079C166.867 95.4578 167.23 94.3383 167.954 93.5468C168.678 92.7554 169.681 92.3596 170.96 92.3596C172.18 92.3596 173.131 92.7093 173.812 93.4059C174.492 94.0998 174.833 95.062 174.833 96.2899V97.4338H169.258C169.282 98.1033 169.483 98.6264 169.854 99.0032C170.226 99.3799 170.746 99.5669 171.415 99.5669C171.936 99.5669 172.429 99.5127 172.893 99.4043C173.356 99.2986 173.841 99.1251 174.346 98.8866V100.714C173.934 100.92 173.492 101.071 173.023 101.172C172.554 101.272 171.982 101.323 171.307 101.323ZM170.974 94.0374C170.475 94.0374 170.082 94.1974 169.8 94.5145C169.515 94.8316 169.353 95.2816 169.312 95.8643H172.622C172.611 95.2816 172.459 94.8316 172.166 94.5145C171.871 94.1974 171.475 94.0374 170.974 94.0374Z" fill="#7C529E"/>
<path d="M180.664 101.323C179.271 101.323 178.184 100.938 177.401 100.171C176.618 99.4043 176.225 98.3147 176.225 96.9079C176.225 95.4578 176.588 94.3383 177.312 93.5468C178.035 92.7554 179.038 92.3596 180.318 92.3596C181.537 92.3596 182.489 92.7093 183.169 93.4059C183.849 94.0998 184.191 95.062 184.191 96.2899V97.4338H178.615C178.64 98.1033 178.84 98.6264 179.212 99.0032C179.583 99.3799 180.103 99.5669 180.773 99.5669C181.293 99.5669 181.787 99.5127 182.25 99.4043C182.714 99.2986 183.199 99.1251 183.703 98.8866V100.714C183.291 100.92 182.849 101.071 182.38 101.172C181.911 101.272 181.339 101.323 180.664 101.323ZM180.331 94.0374C179.832 94.0374 179.439 94.1974 179.157 94.5145C178.873 94.8316 178.71 95.2816 178.67 95.8643H181.979C181.968 95.2816 181.816 94.8316 181.524 94.5145C181.228 94.1974 180.833 94.0374 180.331 94.0374Z" fill="#7C529E"/>
<path d="M186.109 101.166H188.47V89.1367H186.109V101.166Z" fill="#7C529E"/>
<path d="M189.703 92.5229H192.286L193.918 97.3883C194.056 97.8112 194.151 98.3099 194.203 98.8873H194.251C194.306 98.356 194.417 97.8573 194.582 97.3883L196.184 92.5229H198.713L195.054 102.275C194.72 103.175 194.241 103.853 193.62 104.3C192.999 104.75 192.273 104.972 191.443 104.972C191.037 104.972 190.636 104.929 190.245 104.842V102.969C190.527 103.037 190.836 103.07 191.172 103.07C191.59 103.07 191.956 102.942 192.267 102.687C192.579 102.433 192.823 102.048 192.996 101.533L193.137 101.107L189.703 92.5229Z" fill="#7C529E"/>
<path d="M199.617 100.063C199.617 99.629 199.734 99.3011 199.964 99.0815C200.197 98.8592 200.536 98.7481 200.978 98.7481C201.406 98.7481 201.737 98.862 201.973 99.0896C202.206 99.3146 202.325 99.6399 202.325 100.063C202.325 100.469 202.206 100.792 201.967 101.025C201.731 101.261 201.401 101.377 200.978 101.377C200.544 101.377 200.211 101.263 199.972 101.033C199.736 100.803 199.617 100.48 199.617 100.063Z" fill="#7C529E"/>
</svg>
