<svg width="24" height="24" viewBox="0 0 24 24" fill="none" xmlns="http://www.w3.org/2000/svg">
<path d="M21.1462 18.4795C20.0702 19.4308 18.5107 20.1131 16.4678 20.5263C14.425 20.9396 12.3197 21.0604 10.152 20.8889L6.03509 23.9766V20.117C4.67836 19.6959 3.61793 19.1501 2.8538 18.4795C1.94932 17.6842 1.24756 16.5419 0.748538 15.0526C0.249513 13.5634 0 12.0429 0 10.4912C0 8.93957 0.249513 7.4191 0.748538 5.92982C1.24756 4.44055 1.95322 3.29435 2.8655 2.49123C3.77778 1.68811 5.08382 1.07212 6.78363 0.643275C8.48343 0.214425 10.2222 0 12 0C13.7778 0 15.5166 0.214425 17.2164 0.643275C18.9162 1.07212 20.2222 1.68811 21.1345 2.49123C22.0468 3.29435 22.7524 4.44055 23.2515 5.92982C23.7505 7.4191 24 8.93957 24 10.4912C24 12.0429 23.7505 13.5634 23.2515 15.0526C22.7524 16.5419 22.0507 17.6842 21.1462 18.4795ZM14.9474 12.7485L16.4678 13.0058C16.3431 11.1345 15.6218 9.53606 14.3041 8.21053C12.9864 6.88499 11.3918 6.15984 9.52047 6.03509L9.77778 7.55556C11.1189 7.7271 12.2729 8.2963 13.2398 9.26316C14.2066 10.23 14.7758 11.3918 14.9474 12.7485ZM10.0351 9.12281L10.3158 10.807C10.9396 11.1189 11.3996 11.5789 11.6959 12.1871L13.3801 12.4678C13.193 11.6413 12.7953 10.9279 12.1871 10.3275C11.5789 9.7271 10.8616 9.32554 10.0351 9.12281ZM7.53216 10.5029V9.00585C7.53216 8.74074 7.4347 8.47563 7.23977 8.21053C7.04483 7.94542 6.83821 7.75439 6.61988 7.63743C6.40156 7.52047 6.23782 7.50877 6.12865 7.60234L5.05263 8.70175C4.44444 9.30994 4.35478 10.2573 4.78363 11.5439C5.21248 12.8304 6.03119 14.078 7.23977 15.2865C8.44834 16.4951 9.69591 17.3138 10.9825 17.7427C12.269 18.1715 13.2086 18.0819 13.8012 17.4737L14.9006 16.3743C15.0097 16.2807 15.0058 16.1209 14.8889 15.8947C14.7719 15.6686 14.5809 15.462 14.3158 15.2749C14.0507 15.0877 13.7856 14.9942 13.5205 14.9942H12.0234L11.1579 15.7427C10.4717 15.5556 9.61793 14.9513 8.59649 13.9298C7.57505 12.9084 6.97076 12.0468 6.78363 11.345L7.53216 10.5029ZM9.02924 3.01754L9.26316 4.53801C10.8226 4.5692 12.2651 4.97856 13.5906 5.76608C14.9162 6.55361 15.9688 7.60624 16.7485 8.92398C17.5283 10.2417 17.9415 11.6803 17.9883 13.2398L19.5088 13.4971C19.5088 12.078 19.232 10.7212 18.6784 9.4269C18.1248 8.13255 17.3801 7.01754 16.4444 6.08187C15.5088 5.1462 14.3938 4.40156 13.0994 3.84795C11.8051 3.29435 10.4483 3.01754 9.02924 3.01754Z" fill="#1380F6"/>
</svg>
