<svg width="274" height="291" viewBox="0 0 274 291" fill="none" xmlns="http://www.w3.org/2000/svg">
<path d="M4.76569 230.104C4.30855 229.794 4.18917 229.172 4.49907 228.715L9.54914 221.265C9.85902 220.808 10.4808 220.689 10.938 220.999C11.3951 221.309 11.5145 221.931 11.2046 222.388L6.71566 229.01L13.3375 233.499C13.7947 233.808 13.9141 234.43 13.6042 234.887C13.2943 235.345 12.6725 235.464 12.2153 235.154L4.76569 230.104ZM205.519 4.24712C205.865 5.04642 206.206 5.84289 206.541 6.63653L204.699 7.41477C204.366 6.62671 204.028 5.83577 203.684 5.04194L205.519 4.24712ZM208.488 11.3646C209.115 12.9294 209.72 14.483 210.305 16.0255L208.434 16.7339C207.855 15.2035 207.254 13.6618 206.631 12.1086L208.488 11.3646ZM212.053 20.7851C212.629 22.4064 213.181 24.0152 213.71 25.6116L211.811 26.2403C211.287 24.658 210.74 23.063 210.168 21.4551L212.053 20.7851ZM215.225 30.3637C215.731 32.0144 216.211 33.6517 216.665 35.2755L214.739 35.8142C214.289 34.2064 213.814 32.5849 213.313 30.9494L215.225 30.3637ZM217.968 40.1757C218.381 41.8124 218.767 43.4351 219.126 45.044L217.175 45.4805C216.819 43.8894 216.437 42.2842 216.029 40.6646L217.968 40.1757ZM220.175 50.0753C220.496 51.7372 220.788 53.384 221.052 55.0158L219.078 55.3351C218.817 53.7236 218.528 52.0967 218.211 50.4543L220.175 50.0753ZM221.786 60.0707C222.003 61.7662 222.189 63.445 222.345 65.1075L220.354 65.2938C220.2 63.6545 220.017 61.9984 219.802 60.3252L221.786 60.0707ZM222.726 70.1534C222.824 71.8706 222.888 73.5697 222.92 75.2511L220.92 75.2883C220.889 73.6329 220.826 71.9594 220.729 70.2675L222.726 70.1534ZM222.914 80.2921C222.877 82.016 222.804 83.7206 222.696 85.4061L220.701 85.2786C220.806 83.6216 220.878 81.9454 220.914 80.2494L222.914 80.2921ZM222.266 90.4294C222.081 92.1425 221.859 93.8352 221.6 95.5079L219.624 95.2021C219.878 93.5601 220.096 91.8977 220.277 90.2148L222.266 90.4294ZM220.711 100.482C220.37 102.165 219.99 103.828 219.572 105.469L217.634 104.976C218.043 103.367 218.416 101.736 218.751 100.084L220.711 100.482ZM218.204 110.348C217.701 111.983 217.16 113.597 216.582 115.189L214.702 114.507C215.269 112.946 215.799 111.364 216.292 109.76L218.204 110.348ZM214.731 119.918C214.071 121.488 213.373 123.037 212.639 124.564L210.836 123.698C211.556 122.2 212.24 120.682 212.888 119.143L214.731 119.918ZM210.324 129.091C209.514 130.583 208.668 132.054 207.787 133.504L206.078 132.466C206.942 131.043 207.772 129.6 208.566 128.137L210.324 129.091ZM205.046 137.786C204.1 139.19 203.12 140.575 202.108 141.939L200.502 140.747C201.496 139.407 202.459 138.047 203.388 136.668L205.046 137.786ZM198.991 145.95C197.925 147.262 196.827 148.555 195.699 149.83L194.201 148.504C195.311 147.25 196.391 145.979 197.439 144.689L198.991 145.95ZM192.262 153.559C191.092 154.779 189.894 155.98 188.668 157.164L187.279 155.725C188.487 154.559 189.667 153.375 190.818 152.175L192.262 153.559ZM184.963 160.615C183.707 161.744 182.425 162.855 181.118 163.951L179.833 162.419C181.123 161.337 182.387 160.24 183.626 159.127L184.963 160.615ZM177.191 167.137C175.864 168.179 174.514 169.206 173.142 170.217L171.955 168.608C173.312 167.607 174.645 166.593 175.956 165.564L177.191 167.137ZM169.031 173.157C167.647 174.118 166.242 175.064 164.817 175.998L163.721 174.324C165.132 173.401 166.522 172.464 167.891 171.514L169.031 173.157ZM160.554 178.712C159.124 179.598 157.675 180.471 156.208 181.331L155.196 179.607C156.649 178.754 158.085 177.889 159.501 177.012L160.554 178.712ZM151.817 183.842C150.35 184.659 148.867 185.464 147.367 186.259L146.431 184.491C147.918 183.703 149.389 182.905 150.844 182.094L151.817 183.842ZM142.867 188.585C141.371 189.34 139.86 190.084 138.335 190.818L137.468 189.016C138.982 188.287 140.482 187.548 141.966 186.799L142.867 188.585ZM133.742 192.978C132.223 193.676 130.69 194.365 129.145 195.044L128.34 193.214C129.875 192.539 131.398 191.854 132.907 191.161L133.742 192.978ZM124.473 197.054C122.935 197.702 121.384 198.341 119.823 198.971L119.075 197.116C120.627 196.49 122.168 195.855 123.697 195.211L124.473 197.054ZM115.108 200.835C113.546 201.44 111.973 202.037 110.39 202.626L109.693 200.751C111.268 200.165 112.832 199.572 114.386 198.97L115.108 200.835ZM105.642 204.358C104.059 204.925 102.466 205.484 100.865 206.035L100.214 204.144C101.808 203.595 103.393 203.039 104.968 202.475L105.642 204.358ZM96.0897 207.649C94.4897 208.18 92.8816 208.704 91.2657 209.221L90.6563 207.316C92.2655 206.801 93.8668 206.28 95.4599 205.751L96.0897 207.649ZM86.4639 210.73C84.8575 211.226 83.244 211.716 81.6238 212.199L81.0523 210.282C82.6664 209.801 84.2737 209.313 85.8739 208.819L86.4639 210.73ZM76.7764 213.62C75.1643 214.085 73.5462 214.543 71.9224 214.996L71.3852 213.069C73.0036 212.618 74.6161 212.161 76.2225 211.698L76.7764 213.62ZM67.0376 216.336C65.4203 216.772 63.7979 217.203 62.1706 217.629L61.6646 215.694C63.2869 215.27 64.9043 214.84 66.5165 214.405L67.0376 216.336ZM57.2748 218.889C55.6465 219.302 54.0139 219.71 52.3772 220.113L51.8995 218.17C53.5316 217.769 55.1597 217.362 56.7833 216.951L57.2748 218.889ZM47.4733 221.301C45.8358 221.692 44.1947 222.079 42.5504 222.46L42.0983 220.512C43.7385 220.131 45.3754 219.746 47.0087 219.356L47.4733 221.301ZM37.6373 223.585C35.9966 223.955 34.3532 224.321 32.7072 224.682L32.2781 222.729C33.9204 222.368 35.5601 222.003 37.1969 221.634L37.6373 223.585ZM27.774 225.752C26.1304 226.103 24.4847 226.451 22.8373 226.795L22.429 224.837C24.0731 224.494 25.7154 224.147 27.3556 223.796L27.774 225.752ZM17.8907 227.813C16.2432 228.149 14.5945 228.48 12.9447 228.808L12.5551 226.846C14.2019 226.519 15.8476 226.188 17.492 225.854L17.8907 227.813ZM7.99296 229.78C7.16723 229.94 6.34133 230.1 5.51534 230.258L5.13827 228.294C5.96294 228.136 6.78747 227.977 7.61183 227.817L7.99296 229.78ZM4.20457 230.932C3.29027 230.312 3.05154 229.068 3.67134 228.154L13.7715 213.255C14.3913 212.34 15.6349 212.102 16.5492 212.722C17.4635 213.341 17.7022 214.585 17.0824 215.499L8.10452 228.743L21.3483 237.721C22.2626 238.341 22.5013 239.584 21.8815 240.499C21.2617 241.413 20.0181 241.652 19.1038 241.032L4.20457 230.932ZM206.437 3.84971C206.784 4.65175 207.126 5.45098 207.462 6.24741L203.778 7.80389C203.446 7.01862 203.109 6.23045 202.766 5.43935L206.437 3.84971ZM209.416 10.9926C210.045 12.5632 210.653 14.1227 211.24 15.6712L207.499 17.0881C206.922 15.5638 206.323 14.028 205.703 12.4807L209.416 10.9926ZM212.995 20.4501C213.574 22.0781 214.128 23.6938 214.659 25.2972L210.862 26.5547C210.34 24.9794 209.795 23.3912 209.226 21.7901L212.995 20.4501ZM216.181 30.0708C216.689 31.7292 217.171 33.3743 217.628 35.0062L213.776 36.0835C213.328 34.4838 212.855 32.8701 212.357 31.2423L216.181 30.0708ZM218.938 39.9313C219.352 41.5765 219.741 43.208 220.102 44.8258L216.199 45.6988C215.845 44.1166 215.465 42.5201 215.059 40.9091L218.938 39.9313ZM221.157 49.8857C221.48 51.5574 221.774 53.2142 222.039 54.8562L218.09 55.4948C217.831 53.8934 217.545 52.2765 217.23 50.6438L221.157 49.8857ZM222.777 59.9434C222.996 61.6501 223.184 63.3403 223.341 65.0144L219.358 65.387C219.206 63.7592 219.023 62.1145 218.81 60.4525L222.777 59.9434ZM223.724 70.0963C223.823 71.8261 223.888 73.5381 223.919 75.2325L219.92 75.3069C219.89 73.6645 219.827 72.0038 219.731 70.3245L223.724 70.0963ZM223.913 80.3135C223.876 82.0513 223.803 83.7701 223.694 85.4699L219.703 85.2148C219.808 83.5722 219.878 81.91 219.914 80.2281L223.913 80.3135ZM223.26 90.5366C223.074 92.2649 222.85 93.9728 222.588 95.6608L218.635 95.0493C218.887 93.4225 219.103 91.7753 219.283 90.1076L223.26 90.5366ZM221.691 100.681C221.346 102.38 220.963 104.059 220.541 105.716L216.665 104.73C217.07 103.136 217.439 101.521 217.771 99.885L221.691 100.681ZM219.159 110.642C218.652 112.293 218.106 113.922 217.522 115.53L213.762 114.166C214.323 112.62 214.848 111.054 215.336 109.467L219.159 110.642ZM215.653 120.306C214.986 121.891 214.281 123.455 213.54 124.998L209.935 123.265C210.648 121.782 211.325 120.279 211.966 118.755L215.653 120.306ZM211.202 129.568C210.385 131.074 209.531 132.559 208.642 134.023L205.223 131.947C206.079 130.537 206.9 129.108 207.687 127.66L211.202 129.568ZM205.876 138.345C204.921 139.762 203.932 141.158 202.911 142.535L199.699 140.151C200.685 138.823 201.638 137.476 202.558 136.11L205.876 138.345ZM199.767 146.581C198.692 147.904 197.585 149.208 196.448 150.493L193.452 147.842C194.553 146.598 195.623 145.337 196.663 144.058L199.767 146.581ZM192.983 154.251C191.805 155.48 190.598 156.691 189.363 157.883L186.584 155.006C187.783 153.848 188.954 152.674 190.096 151.483L192.983 154.251ZM185.631 161.359C184.366 162.495 183.076 163.615 181.761 164.718L179.191 161.652C180.472 160.578 181.728 159.489 182.957 158.384L185.631 161.359ZM177.809 167.924C176.474 168.972 175.115 170.005 173.735 171.022L171.361 167.803C172.71 166.808 174.036 165.8 175.338 164.778L177.809 167.924ZM169.601 173.978C168.21 174.944 166.797 175.896 165.364 176.834L163.173 173.488C164.576 172.569 165.959 171.637 167.321 170.692L169.601 173.978ZM161.08 179.562C159.643 180.452 158.188 181.329 156.714 182.194L154.69 178.744C156.136 177.895 157.565 177.034 158.974 176.161L161.08 179.562ZM152.304 184.715C150.83 185.536 149.341 186.345 147.835 187.142L145.963 183.608C147.444 182.823 148.909 182.027 150.357 181.221L152.304 184.715ZM143.318 189.478C141.816 190.235 140.299 190.982 138.769 191.719L137.034 188.115C138.543 187.389 140.037 186.653 141.516 185.906L143.318 189.478ZM134.16 193.887C132.635 194.587 131.098 195.278 129.548 195.96L127.938 192.298C129.468 191.625 130.985 190.943 132.489 190.252L134.16 193.887ZM124.861 197.976C123.318 198.625 121.763 199.266 120.197 199.898L118.7 196.189C120.248 195.564 121.785 194.931 123.309 194.289L124.861 197.976ZM115.47 201.767C113.903 202.374 112.326 202.972 110.739 203.563L109.344 199.814C110.915 199.23 112.475 198.637 114.025 198.037L115.47 201.767ZM105.979 205.3C104.392 205.868 102.796 206.428 101.191 206.981L99.888 203.199C101.478 202.651 103.06 202.096 104.632 201.534L105.979 205.3ZM96.4047 208.599C94.8012 209.131 93.1896 209.656 91.5704 210.174L90.3516 206.364C91.9575 205.85 93.5554 205.33 95.1449 204.802L96.4047 208.599ZM86.7589 211.686C85.1493 212.183 83.5327 212.673 81.9095 213.157L80.7665 209.324C82.3776 208.844 83.9819 208.357 85.5789 207.864L86.7589 211.686ZM77.0534 214.581C75.4384 215.046 73.8175 215.506 72.1909 215.959L71.1166 212.106C72.7323 211.656 74.342 211.199 75.9455 210.737L77.0534 214.581ZM67.2982 217.301C65.6783 217.739 64.0533 218.17 62.4236 218.596L61.4116 214.727C63.0315 214.303 64.6463 213.874 66.2559 213.44L67.2982 217.301ZM57.5205 219.859C55.8899 220.272 54.255 220.68 52.6161 221.084L51.6606 217.199C53.2905 216.798 54.9163 216.393 56.5375 215.982L57.5205 219.859ZM47.7056 222.274C46.066 222.665 44.4228 223.052 42.7765 223.434L41.8722 219.538C43.5104 219.158 45.1452 218.773 46.7763 218.383L47.7056 222.274ZM37.8574 224.56C36.2149 224.931 34.5695 225.297 32.9218 225.659L32.0636 221.752C33.704 221.392 35.3419 221.027 36.9768 220.658L37.8574 224.56ZM27.9832 226.73C26.3378 227.082 24.6905 227.43 23.0414 227.774L22.2248 223.858C23.8673 223.515 25.5079 223.169 27.1464 222.818L27.9832 226.73ZM18.09 228.793C16.441 229.129 14.7908 229.46 13.1396 229.789L12.3602 225.865C14.0056 225.538 15.6498 225.208 17.2926 224.874L18.09 228.793ZM8.18354 230.762C7.3571 230.922 6.53054 231.082 5.70386 231.24L4.94975 227.312C5.77373 227.154 6.5976 226.995 7.42127 226.835L8.18354 230.762Z" fill="#1380F6"/>
</svg>