<svg width="264" height="441" viewBox="0 0 264 441" fill="none" xmlns="http://www.w3.org/2000/svg">
<path d="M216.927 410.904C216.428 411.14 215.832 410.927 215.596 410.427L211.75 402.29C211.514 401.791 211.728 401.195 212.227 400.959C212.726 400.723 213.323 400.936 213.559 401.436L216.977 408.669L224.21 405.25C224.709 405.014 225.305 405.228 225.541 405.727C225.777 406.226 225.564 406.823 225.064 407.059L216.927 410.904ZM2.12455 44.0078C2.96832 44.1137 3.81033 44.2248 4.65059 44.3412L4.37636 46.3223C3.54446 46.2071 2.71082 46.0971 1.87545 45.9922L2.12455 44.0078ZM9.67092 45.1008C11.3373 45.3746 12.9965 45.6687 14.6485 45.9829L14.2748 47.9477C12.6392 47.6366 10.9965 47.3454 9.34673 47.0744L9.67092 45.1008ZM19.6088 46.9911C21.2648 47.3494 22.9134 47.7279 24.5544 48.1263L24.0826 50.0698C22.4578 49.6754 20.8255 49.3006 19.1858 48.9458L19.6088 46.9911ZM29.4547 49.381C31.0862 49.8204 32.7099 50.2795 34.3259 50.7581L33.758 52.6757C32.1578 52.2019 30.55 51.7472 28.9345 51.3121L29.4547 49.381ZM39.1696 52.2577C40.7762 52.7769 42.3749 53.3153 43.9655 53.8726L43.3042 55.7601C41.7289 55.2082 40.1456 54.675 38.5546 54.1608L39.1696 52.2577ZM48.7227 55.6044C50.3037 56.2017 51.8764 56.8177 53.4408 57.452L52.6893 59.3055C51.1396 58.6771 49.5818 58.067 48.0159 57.4754L48.7227 55.6044ZM58.1091 59.4098C59.6579 60.081 61.1983 60.7703 62.7302 61.4773L61.8921 63.2932C60.3743 62.5927 58.8482 61.9099 57.3138 61.2449L58.1091 59.4098ZM67.3032 63.6525C68.8189 64.3951 70.3261 65.155 71.8245 65.9321L70.9038 67.7075C69.4188 66.9375 67.9253 66.1844 66.4233 65.4485L67.3032 63.6525ZM76.2913 68.3128C77.771 69.1229 79.2418 69.9497 80.7037 70.7929L79.7045 72.5254C78.2553 71.6896 76.7974 70.8701 75.3309 70.0671L76.2913 68.3128ZM85.0628 73.371C86.5047 74.2452 87.9376 75.1354 89.3615 76.0411L88.288 77.7286C86.8762 76.8305 85.4554 75.9479 84.026 75.0813L85.0628 73.371ZM93.6015 78.8021C95.0058 79.7378 96.401 80.6887 97.7869 81.6546L96.6434 83.2955C95.2688 82.3375 93.8851 81.3944 92.4925 80.4664L93.6015 78.8021ZM101.907 84.5897C103.27 85.5813 104.623 86.5874 105.967 87.6076L104.757 89.2006C103.424 88.1884 102.082 87.1903 100.731 86.2067L101.907 84.5897ZM109.97 90.7105C111.292 91.7557 112.604 92.8146 113.906 93.887L112.635 95.4311C111.342 94.3669 110.04 93.3161 108.729 92.2791L109.97 90.7105ZM117.779 97.1387C119.061 98.2358 120.333 99.3459 121.595 100.469L120.266 101.963C119.013 100.849 117.75 99.7468 116.478 98.658L117.779 97.1387ZM125.342 103.864C126.58 105.007 127.807 106.161 129.026 107.328L127.642 108.773C126.433 107.614 125.214 106.468 123.986 105.334L125.342 103.864ZM132.651 110.864C133.846 112.05 135.032 113.249 136.207 114.458L134.773 115.852C133.606 114.651 132.429 113.461 131.242 112.283L132.651 110.864ZM139.699 118.114C140.853 119.343 141.998 120.584 143.132 121.835L141.651 123.178C140.524 121.935 139.387 120.703 138.241 119.482L139.699 118.114ZM146.497 125.609C147.607 126.875 148.706 128.152 149.796 129.438L148.27 130.731C147.188 129.453 146.095 128.185 144.993 126.927L146.497 125.609ZM153.036 133.326C154.104 134.629 155.161 135.942 156.209 137.264L154.641 138.506C153.601 137.193 152.55 135.889 151.489 134.594L153.036 133.326ZM159.316 141.25C160.342 142.588 161.357 143.934 162.363 145.29L160.756 146.481C159.757 145.134 158.748 143.796 157.729 142.467L159.316 141.25ZM165.343 149.375C166.325 150.743 167.297 152.119 168.259 153.503L166.616 154.644C165.66 153.268 164.694 151.9 163.719 150.541L165.343 149.375ZM171.112 157.68C172.052 159.078 172.981 160.485 173.9 161.898L172.224 162.988C171.31 161.583 170.386 160.185 169.452 158.795L171.112 157.68ZM176.623 166.156C177.521 167.583 178.407 169.017 179.283 170.457L177.575 171.496C176.704 170.064 175.822 168.639 174.93 167.221L176.623 166.156ZM181.879 174.796C182.734 176.249 183.577 177.708 184.41 179.173L182.671 180.161C181.843 178.705 181.005 177.254 180.155 175.81L181.879 174.796ZM186.876 183.585C187.688 185.063 188.489 186.546 189.278 188.034L187.512 188.972C186.726 187.492 185.93 186.017 185.123 184.548L186.876 183.585ZM191.616 192.518C192.384 194.018 193.141 195.523 193.887 197.034L192.094 197.919C191.352 196.418 190.6 194.921 189.836 193.43L191.616 192.518ZM196.094 201.581C196.819 203.104 197.533 204.631 198.236 206.163L196.418 206.997C195.719 205.474 195.009 203.955 194.288 202.441L196.094 201.581ZM200.311 210.772C200.992 212.313 201.661 213.859 202.319 215.408L200.478 216.19C199.824 214.649 199.158 213.112 198.481 211.58L200.311 210.772ZM204.264 220.08C204.9 221.641 205.525 223.206 206.138 224.773L204.276 225.502C203.666 223.943 203.045 222.388 202.412 220.836L204.264 220.08ZM207.944 229.489C208.537 231.071 209.118 232.656 209.687 234.244L207.805 234.918C207.239 233.34 206.661 231.764 206.072 230.191L207.944 229.489ZM211.358 239.013C211.903 240.607 212.437 242.203 212.958 243.8L211.056 244.42C210.538 242.832 210.008 241.245 209.466 239.661L211.358 239.013ZM214.493 248.629C214.992 250.24 215.479 251.853 215.954 253.467L214.035 254.031C213.563 252.426 213.079 250.823 212.583 249.221L214.493 248.629ZM217.341 258.318C217.794 259.949 218.234 261.58 218.662 263.212L216.727 263.719C216.302 262.096 215.864 260.474 215.414 258.854L217.341 258.318ZM219.905 268.111C220.307 269.747 220.696 271.382 221.072 273.018L219.122 273.466C218.749 271.84 218.362 270.214 217.963 268.588L219.905 268.111ZM222.169 277.97C222.521 279.621 222.86 281.271 223.186 282.921L221.223 283.308C220.9 281.668 220.563 280.028 220.213 278.388L222.169 277.97ZM224.123 287.877C224.424 289.545 224.712 291.212 224.985 292.877L223.012 293.202C222.74 291.547 222.454 289.891 222.155 288.233L224.123 287.877ZM225.764 297.87C226.01 299.538 226.242 301.204 226.459 302.869L224.476 303.128C224.26 301.474 224.03 299.819 223.785 298.162L225.764 297.87ZM227.075 307.906C227.265 309.583 227.44 311.257 227.601 312.929L225.61 313.12C225.451 311.46 225.276 309.797 225.087 308.131L227.075 307.906ZM228.041 317.962C228.173 319.653 228.291 321.34 228.392 323.024L226.396 323.145C226.295 321.473 226.179 319.798 226.047 318.119L228.041 317.962ZM228.651 328.064C228.722 329.754 228.778 331.441 228.817 333.123L226.817 333.17C226.778 331.5 226.723 329.826 226.653 328.148L228.651 328.064ZM228.887 338.194C228.894 339.879 228.884 341.559 228.859 343.235L226.859 343.204C226.885 341.542 226.894 339.874 226.887 338.202L228.887 338.194ZM228.729 348.308C228.669 350.001 228.592 351.688 228.497 353.368L226.5 353.256C226.594 351.589 226.671 349.916 226.731 348.237L228.729 348.308ZM228.161 358.391C228.029 360.088 227.879 361.779 227.711 363.462L225.721 363.264C225.887 361.595 226.036 359.919 226.167 358.236L228.161 358.391ZM227.152 368.49C226.947 370.167 226.723 371.836 226.48 373.497L224.501 373.208C224.742 371.563 224.964 369.909 225.167 368.246L227.152 368.49ZM225.685 378.518C225.401 380.182 225.098 381.838 224.775 383.484L222.812 383.099C223.132 381.469 223.432 379.83 223.714 378.181L225.685 378.518ZM223.736 388.451C223.367 390.107 222.978 391.752 222.569 393.387L220.628 392.901C221.033 391.284 221.418 389.655 221.783 388.016L223.736 388.451ZM221.278 398.262C220.82 399.903 220.341 401.532 219.84 403.148L217.929 402.556C218.424 400.958 218.899 399.347 219.352 397.724L221.278 398.262ZM218.273 407.96C218.001 408.756 217.724 409.548 217.441 410.337L215.559 409.663C215.838 408.883 216.112 408.1 216.381 407.313L218.273 407.96ZM217.355 411.808C216.356 412.28 215.164 411.853 214.692 410.855L207.001 394.581C206.529 393.582 206.956 392.39 207.954 391.918C208.953 391.446 210.145 391.873 210.617 392.871L217.454 407.337L231.92 400.501C232.918 400.029 234.11 400.456 234.582 401.454C235.054 402.453 234.627 403.645 233.629 404.117L217.355 411.808ZM2.24911 43.0156C3.09707 43.122 3.94327 43.2337 4.78771 43.3506L4.23924 47.3128C3.41153 47.1982 2.58207 47.0888 1.75089 46.9844L2.24911 43.0156ZM9.83302 44.1141C11.5077 44.3891 13.1751 44.6847 14.8353 45.0005L14.0879 48.93C12.4606 48.6205 10.8261 48.3308 9.18464 48.0612L9.83302 44.1141ZM19.8202 46.0137C21.4845 46.3737 23.1413 46.7541 24.7904 47.1545L23.8466 51.0416C22.2299 50.6491 20.6058 50.2762 18.9744 49.9232L19.8202 46.0137ZM29.7147 48.4154C31.3542 48.857 32.986 49.3184 34.6098 49.7992L33.4741 53.6346C31.8818 53.1631 30.2819 52.7107 28.6744 52.2777L29.7147 48.4154ZM39.4771 51.3062C41.0915 51.8279 42.6979 52.3689 44.2961 52.9289L42.9735 56.7039C41.4059 56.1546 39.8303 55.624 38.2471 55.1124L39.4771 51.3062ZM49.0761 54.669C50.6646 55.2691 52.2448 55.888 53.8166 56.5253L52.3135 60.2322C50.7712 59.6068 49.2208 58.9996 47.6624 58.4108L49.0761 54.669ZM58.5067 58.4923C60.0628 59.1666 61.6103 59.8591 63.1492 60.5693L61.4731 64.2012C59.9623 63.504 58.4434 62.8243 56.9162 62.1624L58.5067 58.4923ZM67.7432 62.7545C69.2658 63.5004 70.7797 64.2638 72.2849 65.0443L70.4434 68.5953C68.9652 67.8287 67.4784 67.079 65.9834 66.3465L67.7432 62.7545ZM76.7716 67.4357C78.2577 68.2494 79.735 69.0798 81.2033 69.9266L79.2049 73.3916C77.7621 72.5595 76.3106 71.7436 74.8506 70.9443L76.7716 67.4357ZM85.5813 72.5159C87.0293 73.3939 88.4683 74.2878 89.8982 75.1974L87.7513 78.5724C86.3454 77.6781 84.9308 76.7993 83.5075 75.9364L85.5813 72.5159ZM94.156 77.9699C95.5661 78.9095 96.9671 79.8644 98.3587 80.8342L96.0717 84.1159C94.7027 83.1618 93.3248 82.2226 91.938 81.2986L94.156 77.9699ZM102.496 83.7812C103.864 84.7768 105.222 85.7869 106.571 86.8111L104.153 89.997C102.825 88.9889 101.488 87.9949 100.142 87.0153L102.496 83.7812ZM110.591 89.9262C111.917 90.9755 113.234 92.0385 114.542 93.115L111.999 96.2031C110.712 95.143 109.415 94.0963 108.109 93.0634L110.591 89.9262ZM118.429 96.379C119.716 97.4802 120.993 98.5945 122.26 99.7215L119.602 102.71C118.353 101.6 117.095 100.502 115.828 99.4177L118.429 96.379ZM126.021 103.13C127.263 104.276 128.495 105.435 129.717 106.606L126.951 109.495C125.746 108.341 124.531 107.199 123.307 106.069L126.021 103.13ZM133.356 110.154C134.555 111.345 135.745 112.547 136.924 113.761L134.056 116.549C132.893 115.352 131.72 114.167 130.537 112.993L133.356 110.154ZM140.428 117.429C141.586 118.663 142.735 119.908 143.873 121.163L140.91 123.85C139.787 122.611 138.654 121.384 137.512 120.167L140.428 117.429ZM147.249 124.95C148.362 126.22 149.466 127.501 150.559 128.792L147.507 131.377C146.428 130.104 145.339 128.84 144.241 127.586L147.249 124.95ZM153.81 132.693C154.881 134 155.942 135.317 156.993 136.643L153.858 139.127C152.82 137.818 151.773 136.518 150.716 135.228L153.81 132.693ZM160.11 140.642C161.139 141.983 162.157 143.334 163.166 144.694L159.953 147.077C158.957 145.734 157.951 144.4 156.935 143.075L160.11 140.642ZM166.156 148.791C167.141 150.164 168.115 151.544 169.08 152.933L165.794 155.215C164.842 153.843 163.879 152.479 162.906 151.124L166.156 148.791ZM171.942 157.122C172.885 158.525 173.817 159.935 174.739 161.353L171.385 163.533C170.474 162.133 169.553 160.739 168.622 159.353L171.942 157.122ZM177.47 165.624C178.37 167.055 179.259 168.493 180.138 169.937L176.72 172.016C175.852 170.588 174.973 169.168 174.084 167.754L177.47 165.624ZM182.741 174.289C183.598 175.746 184.444 177.209 185.279 178.678L181.802 180.655C180.976 179.203 180.14 177.757 179.293 176.317L182.741 174.289ZM187.753 183.104C188.567 184.585 189.37 186.073 190.162 187.566L186.628 189.44C185.845 187.965 185.051 186.494 184.247 185.03L187.753 183.104ZM192.506 192.062C193.276 193.567 194.036 195.076 194.784 196.591L191.198 198.362C190.458 196.865 189.707 195.373 188.946 193.886L192.506 192.062ZM196.996 201.151C197.724 202.678 198.44 204.21 199.145 205.746L195.509 207.414C194.813 205.896 194.104 204.381 193.385 202.871L196.996 201.151ZM201.226 210.368C201.908 211.914 202.58 213.463 203.239 215.017L199.557 216.58C198.905 215.044 198.242 213.512 197.567 211.984L201.226 210.368ZM205.189 219.703C205.828 221.268 206.455 222.837 207.07 224.409L203.345 225.866C202.737 224.312 202.117 222.761 201.486 221.213L205.189 219.703ZM208.881 229.138C209.475 230.725 210.058 232.314 210.629 233.906L206.863 235.256C206.299 233.682 205.723 232.111 205.135 230.542L208.881 229.138ZM212.304 238.689C212.851 240.288 213.386 241.888 213.908 243.49L210.105 244.73C209.589 243.146 209.06 241.564 208.52 239.985L212.304 238.689ZM215.448 248.333C215.949 249.949 216.437 251.566 216.913 253.185L213.076 254.313C212.605 252.713 212.123 251.114 211.627 249.517L215.448 248.333ZM218.304 258.05C218.759 259.686 219.2 261.322 219.629 262.959L215.759 263.972C215.336 262.355 214.899 260.737 214.45 259.121L218.304 258.05ZM220.876 267.872C221.279 269.513 221.669 271.154 222.046 272.795L218.148 273.69C217.775 272.069 217.39 270.448 216.992 268.827L220.876 267.872ZM223.147 277.762C223.5 279.417 223.84 281.072 224.167 282.727L220.242 283.501C219.92 281.867 219.584 280.232 219.235 278.597L223.147 277.762ZM225.107 287.699C225.409 289.372 225.698 291.045 225.972 292.715L222.025 293.364C221.754 291.714 221.469 290.063 221.171 288.411L225.107 287.699ZM226.753 297.724C227 299.397 227.233 301.069 227.451 302.739L223.485 303.258C223.269 301.61 223.04 299.959 222.796 298.307L226.753 297.724ZM228.068 307.793C228.259 309.476 228.435 311.156 228.597 312.833L224.615 313.216C224.456 311.561 224.282 309.904 224.094 308.244L228.068 307.793ZM229.038 317.884C229.171 319.581 229.288 321.274 229.391 322.964L225.398 323.205C225.297 321.539 225.181 319.87 225.05 318.197L229.038 317.884ZM229.65 328.022C229.722 329.719 229.777 331.411 229.817 333.1L225.818 333.193C225.779 331.53 225.724 329.862 225.654 328.19L229.65 328.022ZM229.887 338.19C229.894 339.881 229.884 341.568 229.859 343.25L225.859 343.188C225.885 341.533 225.894 339.872 225.887 338.206L229.887 338.19ZM229.729 348.344C229.668 350.043 229.59 351.737 229.495 353.425L225.502 353.199C225.595 351.54 225.672 349.873 225.731 348.201L229.729 348.344ZM229.158 358.468C229.025 360.173 228.875 361.871 228.706 363.562L224.726 363.164C224.892 361.503 225.039 359.835 225.17 358.159L229.158 358.468ZM228.145 368.611C227.939 370.296 227.713 371.973 227.47 373.642L223.512 373.064C223.751 371.426 223.972 369.779 224.175 368.125L228.145 368.611ZM226.671 378.686C226.386 380.359 226.081 382.022 225.756 383.676L221.831 382.907C222.149 381.285 222.448 379.654 222.728 378.013L226.671 378.686ZM224.712 388.668C224.341 390.333 223.95 391.987 223.539 393.63L219.658 392.658C220.061 391.049 220.444 389.429 220.807 387.799L224.712 388.668ZM222.241 398.531C221.781 400.181 221.299 401.818 220.795 403.444L216.974 402.26C217.466 400.671 217.938 399.069 218.389 397.455L222.241 398.531ZM219.219 408.283C218.946 409.083 218.667 409.881 218.383 410.674L214.617 409.326C214.895 408.55 215.167 407.772 215.434 406.99L219.219 408.283Z" fill="#1380F6"/>
</svg>
