<svg width="374" height="273" viewBox="0 0 374 273" fill="none" xmlns="http://www.w3.org/2000/svg">
<path d="M369.729 193.684C370.107 193.281 370.087 192.648 369.684 192.27L363.121 186.112C362.718 185.734 362.085 185.754 361.708 186.157C361.33 186.56 361.35 187.193 361.753 187.571L367.587 193.045L362.113 198.878C361.735 199.281 361.755 199.914 362.158 200.292C362.56 200.67 363.193 200.65 363.571 200.247L369.729 193.684ZM46 6.99951C46 7.85039 46.004 8.69757 46.012 9.54106L48.0119 9.52208C48.004 8.68495 48 7.8441 48 6.99951H46ZM46.1078 14.558C46.1556 16.2157 46.2192 17.8587 46.2985 19.4873L48.2961 19.3901C48.2175 17.7748 48.1544 16.145 48.107 14.5003L46.1078 14.558ZM46.5891 24.4162C46.7062 26.1028 46.8404 27.7735 46.9917 29.4284L48.9834 29.2462C48.8335 27.6061 48.7004 25.95 48.5843 24.2778L46.5891 24.4162ZM47.4966 34.3455C47.6849 35.9958 47.8906 37.6299 48.1136 39.2479L50.0949 38.9749C49.8741 37.3725 49.6703 35.7538 49.4837 34.1188L47.4966 34.3455ZM48.8603 44.2163C49.1274 45.8553 49.4128 47.4774 49.7162 49.0825L51.6814 48.7111C51.3812 47.1226 51.0987 45.5172 50.8342 43.8945L48.8603 44.2163ZM50.7022 53.9507C51.0581 55.5955 51.4334 57.222 51.8279 58.8304L53.7704 58.3539C53.3802 56.7635 53.009 55.1548 52.657 53.5278L50.7022 53.9507ZM53.069 63.6014C53.515 65.2221 53.9812 66.8237 54.4672 68.4064L56.3791 67.8193C55.8989 66.2554 55.4382 64.6726 54.9973 63.0707L53.069 63.6014ZM56.0017 73.1484C56.5355 74.7163 57.0894 76.2649 57.6632 77.7946L59.5358 77.0921C58.9692 75.5818 58.4222 74.0524 57.895 72.5039L56.0017 73.1484ZM59.5024 82.4685C60.1364 84.0063 60.7912 85.5242 61.4666 87.0223L63.2899 86.2004C62.6235 84.7221 61.9772 83.2241 61.3514 81.7062L59.5024 82.4685ZM63.5904 91.532C64.3281 93.0328 65.0871 94.5128 65.8672 95.9723L67.6311 95.0296C66.8617 93.5901 66.113 92.1302 65.3853 90.6498L63.5904 91.532ZM68.2769 100.302C69.117 101.752 69.9787 103.181 70.8616 104.589L72.5561 103.527C71.6856 102.138 70.836 100.729 70.0075 99.2991L68.2769 100.302ZM73.5734 108.752C74.5084 110.133 75.4645 111.494 76.4416 112.834L78.0576 111.655C77.0943 110.335 76.1516 108.993 75.2298 107.631L73.5734 108.752ZM79.4477 116.808C80.4734 118.115 81.5199 119.402 82.5867 120.669L84.1163 119.38C83.0644 118.131 82.0326 116.863 81.0213 115.573L79.4477 116.808ZM85.8655 124.426C86.9787 125.658 88.112 126.87 89.265 128.061L90.7023 126.67C89.565 125.495 88.4473 124.3 87.3495 123.085L85.8655 124.426ZM92.7898 131.582C93.9842 132.736 95.1979 133.87 96.4306 134.984L97.7717 133.5C96.5552 132.401 95.3576 131.282 94.1793 130.144L92.7898 131.582ZM100.176 138.261C101.442 139.332 102.725 140.384 104.027 141.418L105.271 139.852C103.985 138.831 102.718 137.792 101.468 136.734L100.176 138.261ZM107.976 144.455C109.302 145.443 110.646 146.413 112.006 147.364L113.153 145.726C111.808 144.785 110.481 143.827 109.171 142.851L107.976 144.455ZM116.137 150.166C117.515 151.072 118.909 151.961 120.319 152.833L121.371 151.132C119.977 150.269 118.598 149.391 117.236 148.495L116.137 150.166ZM124.592 155.395C126.02 156.226 127.464 157.041 128.922 157.839L129.882 156.085C128.439 155.295 127.011 154.488 125.597 153.666L124.592 155.395ZM133.308 160.17C134.782 160.93 136.271 161.675 137.772 162.404L138.646 160.605C137.158 159.883 135.685 159.145 134.225 158.393L133.308 160.17ZM142.249 164.515C143.754 165.204 145.272 165.878 146.803 166.538L147.595 164.701C146.078 164.047 144.573 163.379 143.081 162.696L142.249 164.515ZM151.382 168.455C152.909 169.075 154.448 169.683 155.999 170.277L156.714 168.409C155.176 167.82 153.649 167.217 152.135 166.602L151.382 168.455ZM160.677 172.016C162.221 172.573 163.776 173.118 165.341 173.65L165.985 171.756C164.431 171.228 162.888 170.687 161.356 170.135L160.677 172.016ZM170.068 175.21C171.639 175.713 173.219 176.204 174.809 176.684L175.387 174.769C173.807 174.293 172.238 173.805 170.678 173.305L170.068 175.21ZM179.565 178.076C181.159 178.528 182.763 178.97 184.375 179.4L184.891 177.468C183.289 177.04 181.695 176.602 180.111 176.152L179.565 178.076ZM189.159 180.639C190.759 181.041 192.367 181.433 193.983 181.814L194.443 179.867C192.835 179.488 191.237 179.099 189.646 178.7L189.159 180.639ZM198.836 182.923C200.44 183.278 202.051 183.623 203.669 183.959L204.075 182.001C202.466 181.667 200.863 181.323 199.268 180.97L198.836 182.923ZM208.544 184.939C210.163 185.254 211.788 185.56 213.42 185.857L213.778 183.889C212.154 183.594 210.536 183.289 208.926 182.976L208.544 184.939ZM218.295 186.714C219.926 186.992 221.564 187.26 223.207 187.521L223.52 185.545C221.884 185.286 220.254 185.019 218.63 184.743L218.295 186.714ZM228.098 188.269C229.728 188.51 231.364 188.742 233.004 188.967L233.276 186.985C231.642 186.762 230.013 186.53 228.39 186.29L228.098 188.269ZM237.942 189.619C239.571 189.826 241.206 190.025 242.845 190.218L243.078 188.231C241.445 188.04 239.817 187.841 238.194 187.635L237.942 189.619ZM247.772 190.773C249.417 190.951 251.066 191.122 252.72 191.286L252.918 189.296C251.27 189.132 249.626 188.962 247.987 188.785L247.772 190.773ZM257.638 191.754C259.282 191.903 260.929 192.046 262.58 192.182L262.745 190.189C261.099 190.053 259.457 189.911 257.819 189.762L257.638 191.754ZM267.532 192.572C269.172 192.695 270.816 192.812 272.463 192.923L272.598 190.927C270.955 190.817 269.317 190.7 267.681 190.578L267.532 192.572ZM277.414 193.238C279.063 193.337 280.714 193.431 282.368 193.519L282.474 191.522C280.825 191.434 279.178 191.341 277.534 191.242L277.414 193.238ZM287.309 193.765C288.958 193.842 290.61 193.913 292.264 193.98L292.344 191.981C290.694 191.915 289.047 191.844 287.402 191.767L287.309 193.765ZM297.22 194.163C298.866 194.219 300.515 194.27 302.166 194.316L302.222 192.317C300.575 192.271 298.93 192.22 297.287 192.164L297.22 194.163ZM307.123 194.441C308.773 194.478 310.425 194.511 312.079 194.539L312.113 192.539C310.463 192.511 308.814 192.479 307.168 192.442L307.123 194.441ZM317.028 194.609C318.679 194.629 320.332 194.644 321.985 194.655L321.998 192.655C320.348 192.644 318.699 192.629 317.051 192.61L317.028 194.609ZM326.94 194.676C328.59 194.679 330.24 194.678 331.892 194.673L331.886 192.673C330.238 192.678 328.59 192.679 326.944 192.676L326.94 194.676ZM336.847 194.648C338.498 194.636 340.149 194.62 341.801 194.601L341.778 192.601C340.129 192.62 338.48 192.636 336.832 192.648L336.847 194.648ZM346.753 194.534C348.404 194.508 350.055 194.479 351.705 194.447L351.666 192.447C350.018 192.479 348.37 192.508 346.722 192.534L346.753 194.534ZM356.658 194.341C358.309 194.302 359.96 194.261 361.61 194.217L361.557 192.218C359.909 192.262 358.26 192.303 356.612 192.341L356.658 194.341ZM366.559 194.076C367.384 194.051 368.208 194.025 369.032 193.999L368.968 192C368.145 192.026 367.322 192.052 366.499 192.077L366.559 194.076ZM370.459 194.368C371.214 193.563 371.174 192.297 370.369 191.541L357.242 179.225C356.437 178.469 355.171 178.509 354.415 179.315C353.659 180.12 353.7 181.386 354.505 182.142L366.173 193.09L355.225 204.757C354.469 205.563 354.51 206.829 355.315 207.584C356.121 208.34 357.386 208.3 358.142 207.494L370.459 194.368ZM45 6.99951C45 7.85353 45.004 8.70388 45.0121 9.55056L49.0119 9.51259C49.004 8.67864 49 7.84095 49 6.99951H45ZM45.1082 14.5868C45.1562 16.251 45.2201 17.9007 45.2997 19.5359L49.295 19.3415C49.2167 17.7329 49.1538 16.1096 49.1066 14.4715L45.1082 14.5868ZM45.5915 24.4854C45.7091 26.1793 45.8439 27.8572 45.9959 29.5194L49.9793 29.1552C49.83 27.5224 49.6975 25.8736 49.5819 24.2085L45.5915 24.4854ZM46.5031 34.4589C46.6923 36.1168 46.8989 37.7586 47.1229 39.3844L51.0855 38.8384C50.8658 37.2438 50.663 35.6328 50.4773 34.0054L46.5031 34.4589ZM47.8733 44.3772C48.1418 46.0244 48.4286 47.6547 48.7336 49.2682L52.664 48.5254C52.3654 46.9453 52.0844 45.3481 51.8212 43.7336L47.8733 44.3772ZM49.7248 54.1622C50.0826 55.8158 50.46 57.4513 50.8567 59.0686L54.7416 58.1157C54.3536 56.5342 53.9845 54.9345 53.6344 53.3163L49.7248 54.1622ZM52.1048 63.8667C52.5534 65.4968 53.0223 67.1078 53.5113 68.7L57.335 67.5257C56.8577 65.9713 56.3997 64.3979 55.9614 62.8054L52.1048 63.8667ZM55.0551 73.4707C55.5921 75.0482 56.1495 76.6065 56.7269 78.1458L60.4721 76.7409C59.9092 75.2402 59.3656 73.7205 58.8417 72.1816L55.0551 73.4707ZM58.5779 82.8496C59.216 84.3974 59.8751 85.9253 60.5549 87.4333L64.2015 85.7894C63.5396 84.3211 62.8976 82.833 62.2759 81.3251L58.5779 82.8496ZM62.693 91.9732C63.4356 93.484 64.1999 94.9741 64.9853 96.4437L68.513 94.5582C67.749 93.1287 67.0055 91.6789 66.2827 90.2086L62.693 91.9732ZM67.4116 100.803C68.2576 102.263 69.1253 103.702 70.0143 105.12L73.4034 102.996C72.5391 101.617 71.6954 100.218 70.8728 98.7978L67.4116 100.803ZM72.7452 109.312C73.6867 110.704 74.6497 112.074 75.6336 113.423L78.8656 111.066C77.9092 109.755 76.9732 108.423 76.058 107.07L72.7452 109.312ZM78.6609 117.425C79.6938 118.742 80.7477 120.038 81.8219 121.313L84.8811 118.736C83.8367 117.496 82.8122 116.236 81.8081 114.956L78.6609 117.425ZM85.1236 125.097C86.2445 126.337 87.3856 127.557 88.5464 128.757L91.4209 125.975C90.2915 124.808 89.1816 123.621 88.0915 122.415L85.1236 125.097ZM92.095 132.302C93.2975 133.463 94.5193 134.604 95.76 135.726L98.4423 132.759C97.2339 131.666 96.0444 130.555 94.874 129.425L92.095 132.302ZM99.5298 139.024C100.803 140.102 102.095 141.161 103.405 142.201L105.893 139.068C104.615 138.054 103.356 137.022 102.115 135.971L99.5298 139.024ZM107.379 145.257C108.713 146.251 110.064 147.226 111.433 148.184L113.726 144.906C112.39 143.971 111.07 143.019 109.768 142.049L107.379 145.257ZM115.588 151.002C116.974 151.913 118.376 152.807 119.793 153.683L121.897 150.281C120.51 149.424 119.14 148.55 117.785 147.659L115.588 151.002ZM124.089 156.26C125.525 157.095 126.976 157.914 128.441 158.716L130.362 155.208C128.927 154.422 127.506 153.62 126.1 152.802L124.089 156.26ZM132.85 161.059C134.331 161.823 135.827 162.571 137.336 163.304L139.083 159.706C137.602 158.987 136.136 158.253 134.683 157.504L132.85 161.059ZM141.833 165.424C143.345 166.116 144.87 166.793 146.407 167.456L147.991 163.783C146.48 163.132 144.982 162.466 143.498 161.787L141.833 165.424ZM151.005 169.381C152.539 170.004 154.084 170.614 155.641 171.21L157.072 167.475C155.54 166.888 154.019 166.288 152.511 165.675L151.005 169.381ZM160.338 172.957C161.888 173.516 163.448 174.062 165.019 174.597L166.307 170.81C164.759 170.283 163.222 169.745 161.695 169.194L160.338 172.957ZM169.763 176.162C171.339 176.667 172.925 177.16 174.521 177.641L175.676 173.812C174.101 173.337 172.537 172.851 170.983 172.353L169.763 176.162ZM179.292 179.038C180.891 179.492 182.5 179.935 184.117 180.367L185.149 176.502C183.551 176.075 181.963 175.638 180.384 175.19L179.292 179.038ZM188.915 181.609C190.52 182.012 192.133 182.405 193.754 182.787L194.672 178.894C193.07 178.516 191.475 178.128 189.89 177.73L188.915 181.609ZM198.62 183.899C200.228 184.255 201.843 184.602 203.465 184.939L204.279 181.022C202.673 180.689 201.075 180.346 199.485 179.994L198.62 183.899ZM208.353 185.921C209.976 186.237 211.605 186.543 213.241 186.841L213.957 182.905C212.337 182.611 210.723 182.307 209.117 181.995L208.353 185.921ZM218.127 187.7C219.762 187.978 221.404 188.247 223.051 188.509L223.677 184.558C222.044 184.299 220.418 184.032 218.798 183.757L218.127 187.7ZM227.952 189.258C229.586 189.499 231.224 189.732 232.869 189.958L233.412 185.995C231.781 185.771 230.156 185.54 228.536 185.301L227.952 189.258ZM237.816 190.611C239.449 190.818 241.086 191.018 242.728 191.211L243.195 187.238C241.565 187.047 239.94 186.848 238.32 186.643L237.816 190.611ZM247.665 191.767C249.313 191.946 250.965 192.117 252.621 192.281L253.016 188.301C251.371 188.138 249.731 187.967 248.095 187.791L247.665 191.767ZM257.548 192.75C259.194 192.899 260.844 193.042 262.498 193.179L262.827 189.192C261.184 189.057 259.545 188.914 257.91 188.766L257.548 192.75ZM267.457 193.569C269.1 193.692 270.747 193.809 272.396 193.92L272.665 189.929C271.025 189.819 269.389 189.703 267.756 189.581L267.457 193.569ZM277.354 194.236C279.005 194.336 280.659 194.429 282.315 194.517L282.528 190.523C280.88 190.435 279.236 190.342 277.594 190.244L277.354 194.236ZM287.262 194.764C288.914 194.841 290.568 194.912 292.224 194.979L292.384 190.982C290.736 190.916 289.091 190.845 287.448 190.768L287.262 194.764ZM297.186 195.163C298.834 195.219 300.485 195.27 302.137 195.316L302.25 191.318C300.605 191.271 298.962 191.221 297.321 191.165L297.186 195.163ZM307.1 195.441C308.753 195.478 310.406 195.511 312.062 195.539L312.129 191.539C310.481 191.511 308.835 191.479 307.19 191.442L307.1 195.441ZM317.016 195.609C318.669 195.629 320.323 195.644 321.978 195.655L322.005 191.655C320.356 191.644 318.709 191.629 317.063 191.61L317.016 195.609ZM326.939 195.676C328.59 195.679 330.242 195.678 331.894 195.673L331.883 191.673C330.237 191.678 328.591 191.679 326.946 191.676L326.939 195.676ZM336.854 195.648C338.507 195.636 340.159 195.62 341.813 195.601L341.766 191.601C340.119 191.62 338.472 191.636 336.825 191.648L336.854 195.648ZM346.769 195.534C348.421 195.508 350.073 195.479 351.725 195.447L351.647 191.447C350 191.48 348.353 191.509 346.706 191.534L346.769 195.534ZM356.681 195.341C358.334 195.302 359.986 195.261 361.637 195.216L361.53 191.218C359.883 191.262 358.236 191.303 356.588 191.342L356.681 195.341ZM366.589 195.075C367.414 195.05 368.239 195.025 369.064 194.999L368.936 191.001C368.114 191.027 367.291 191.052 366.469 191.077L366.589 195.075Z" fill="#1380F6"/>
</svg>
