<svg width="582" height="781" viewBox="0 0 582 781" fill="none" xmlns="http://www.w3.org/2000/svg">
<path fill-rule="evenodd" clip-rule="evenodd" d="M469.149 42.7778C532.158 48.8348 608.332 5.13665 656.89 41.2596C710.346 81.0256 674.83 164.046 706.366 219.244C729.938 260.505 791.067 275.792 814.491 317.119C839.847 361.851 839.998 413.118 844.545 463.022C850.366 526.921 884.923 599.44 845.086 652.93C806.19 705.157 717.286 700.307 651.299 722.5C590.349 743 533.148 790.351 469.149 779.37C403.391 768.087 372.378 700.057 318.046 665.32C273.638 636.929 210.206 632.232 177.803 593.099C145.496 554.082 167.644 496.09 142.384 453.178C106.409 392.063 9.32721 360.708 0.677903 292.193C-7.28033 229.152 56.5647 176.342 101.177 126.761C145.78 77.1894 191.479 18.9819 260.73 3.17673C330.411 -12.7267 397.617 35.9014 469.149 42.7778Z" fill="#1380F6"/>
</svg>
