<svg width="972" height="683" viewBox="0 0 972 683" fill="none" xmlns="http://www.w3.org/2000/svg">
<path fill-rule="evenodd" clip-rule="evenodd" d="M489.004 66.1376C541.088 45.7276 592.388 -18.4821 643.091 5.15007C693.446 28.6193 659.153 118.369 693.964 161.666C728.983 205.222 828.237 190.523 836.565 245.788C845.263 303.509 761.242 332.276 726.771 379.385C705.491 408.467 692.775 441.591 671.832 470.917C649.978 501.519 625 527.958 600.373 556.376C563.277 599.18 545.147 674.382 489.004 681.883C436.281 688.926 410.529 610.654 362.319 588.179C313.307 565.331 231.638 598.235 206.676 550.265C178.997 497.072 255.458 438.817 253.413 378.888C251.88 333.965 188.61 302.616 196.717 258.404C204.715 214.791 257.627 195.988 292.074 168.069C321.019 144.61 350.752 123.868 383.84 106.742C417.635 89.2493 453.573 80.0216 489.004 66.1376Z" fill="#F2F2F2"/>
<path d="M972 3.05176e-05C972 63.8225 847.424 37.5358 823 96.5C798.576 155.464 802.129 152.371 757 197.5C711.871 242.629 823 387.5 567 399.5C508.036 423.924 549.822 486 486 486C422.178 486 397.964 473.424 339 449C280.036 424.576 189.629 444.629 144.5 399.5C51.1485 306.148 149.924 230.964 125.5 172C101.076 113.036 -5.57953e-06 63.8224 0 0L486 3.05176e-05H972Z" fill="#1380F6"/>
</svg>