<svg width="616" height="227" viewBox="0 0 616 227" fill="none" xmlns="http://www.w3.org/2000/svg">
<path fill-rule="evenodd" clip-rule="evenodd" d="M330.685 -373.759C395.264 -368.446 463.202 -399.902 520.266 -369.204C580.341 -336.885 621.307 -274.288 638.364 -208.238C654.856 -144.374 629.071 -80.6146 611.186 -17.1268C592.452 49.3742 584.768 124.244 532.104 168.962C477.915 214.975 400.244 235.719 330.685 221.054C265.777 207.369 237.293 133.102 182.774 95.3145C126.24 56.1302 33.4447 60.4213 7.19659 -3.15945C-18.8853 -66.3375 44.6688 -129.407 62.7954 -195.31C82.1918 -265.829 56.1323 -361.829 117.002 -402.376C178.311 -443.216 257.266 -379.798 330.685 -373.759Z" fill="#1380F6"/>
</svg>
