<svg width="383" height="684" fill="none" xmlns="http://www.w3.org/2000/svg"><path fill-rule="evenodd" clip-rule="evenodd" d="M75.164 2.168c65.197 9.868 108.205 68.43 160.759 108.255 48.02 36.39 109.385 60.539 134.35 115.374 24.956 54.816 5.556 117.179-1.227 177.025-7.003 61.786 3.448 133.17-39.074 178.539-42.411 45.25-115.621 33.108-175.254 50.141-59.071 16.873-113.842 63.568-173.646 49.514-60.246-14.157-92.015-77.405-134.905-122.02-45.504-47.337-106.011-84.569-124.309-147.63-19.242-66.318-5.114-138.572 22.959-201.662 28.237-63.457 76.129-116.243 134.942-153.192C-61.811 19.804 6.937-8.16 75.164 2.168z" fill="#1380F6"/></svg>