<svg width="202" height="93" viewBox="0 0 202 93" fill="none" xmlns="http://www.w3.org/2000/svg">
<path d="M97.7446 33.9859C96.2528 33.4671 95.0854 32.8833 94.2422 32.105L95.3448 29.7701C96.1231 30.4835 97.1609 31.0673 98.4581 31.5213C99.6904 31.9753 100.988 32.1699 102.35 32.1699C104.101 32.1699 105.398 31.8456 106.241 31.2618C107.084 30.6781 107.538 29.8998 107.538 28.9269C107.538 28.2134 107.279 27.6297 106.825 27.1757C106.371 26.7217 105.787 26.3974 105.074 26.1379C104.36 25.8785 103.387 25.6191 102.155 25.2948C100.598 24.9056 99.3012 24.5164 98.3283 24.1273C97.3554 23.7381 96.5122 23.1544 95.7988 22.3761C95.0853 21.5978 94.7611 20.4952 94.7611 19.198C94.7611 18.0953 95.0853 17.0576 95.6691 16.1496C96.2528 15.2415 97.1608 14.5281 98.3932 14.0092C99.6255 13.4903 101.117 13.166 102.869 13.166C104.101 13.166 105.333 13.2957 106.566 13.62C107.798 13.9443 108.836 14.3984 109.679 14.9821L108.706 17.3819C107.798 16.7982 106.89 16.409 105.852 16.0847C104.879 15.8253 103.841 15.6307 102.869 15.6307C101.182 15.6307 99.8849 15.955 99.0418 16.5387C98.1986 17.1873 97.7446 17.9656 97.7446 18.9385C97.7446 19.652 98.004 20.2357 98.4581 20.6897C98.9121 21.1437 99.5607 21.468 100.274 21.7275C100.988 21.9869 101.96 22.2464 103.193 22.5058C104.749 22.895 106.047 23.2841 107.019 23.6733C107.992 24.0624 108.836 24.6462 109.484 25.4245C110.198 26.2028 110.522 27.2406 110.522 28.6026C110.522 29.7052 110.198 30.743 109.614 31.651C109.03 32.559 108.122 33.2725 106.89 33.7914C105.657 34.3102 104.166 34.5697 102.35 34.5697C100.728 34.6994 99.1715 34.44 97.7446 33.9859Z" fill="white"/>
<path d="M139.19 20.1067C140.358 21.2742 140.942 23.0254 140.942 25.2955V34.5055H138.023V25.6197C138.023 24.0631 137.634 22.8956 136.985 22.1173C136.272 21.339 135.234 20.9499 133.937 20.9499C132.445 20.9499 131.278 21.4039 130.434 22.3119C129.591 23.2199 129.137 24.5171 129.137 26.2683V34.5055H126.219V25.6197C126.219 24.0631 125.829 22.8956 125.181 22.1173C124.467 21.339 123.43 20.9499 122.132 20.9499C120.641 20.9499 119.473 21.4039 118.63 22.3119C117.787 23.2199 117.333 24.5171 117.333 26.2683V34.5055H114.414V18.4852H117.203V20.885C117.787 20.0418 118.565 19.4581 119.473 19.0041C120.446 18.55 121.484 18.3555 122.716 18.3555C123.948 18.3555 125.051 18.6149 126.024 19.1338C126.997 19.6527 127.71 20.3661 128.229 21.339C128.813 20.431 129.656 19.7175 130.759 19.1986C131.861 18.6798 133.029 18.4203 134.391 18.4203C136.401 18.3555 138.023 18.9392 139.19 20.1067Z" fill="white"/>
<path d="M157.156 19.9771C158.324 21.0797 158.907 22.7012 158.907 24.8416V34.5057H156.183V32.4302C155.729 33.1436 155.016 33.7274 154.108 34.1165C153.2 34.5057 152.162 34.7002 150.93 34.7002C149.113 34.7002 147.687 34.2462 146.649 33.4031C145.546 32.5599 145.027 31.3924 145.027 30.0304C145.027 28.6683 145.546 27.5008 146.584 26.6577C147.622 25.8145 149.243 25.3605 151.448 25.3605H156.053V24.7767C156.053 23.5444 155.664 22.5715 154.951 21.9229C154.237 21.2743 153.135 20.95 151.773 20.95C150.8 20.95 149.892 21.0797 148.984 21.404C148.076 21.7283 147.297 22.1175 146.714 22.6364L145.481 20.496C146.325 19.8474 147.297 19.3285 148.4 19.0042C149.568 18.6799 150.735 18.4853 152.032 18.4853C154.302 18.3556 155.989 18.8745 157.156 19.9771ZM154.302 31.6518C155.081 31.133 155.664 30.4844 156.053 29.5763V27.3711H151.578C149.113 27.3711 147.881 28.2143 147.881 29.8358C147.881 30.6141 148.205 31.2627 148.789 31.7167C149.438 32.1707 150.281 32.4302 151.384 32.4302C152.551 32.4302 153.459 32.1707 154.302 31.6518Z" fill="white"/>
<path d="M169.284 19.0689C170.257 18.6149 171.489 18.3555 172.851 18.3555V21.1444C172.721 21.1444 172.462 21.1444 172.202 21.1444C170.646 21.1444 169.413 21.5984 168.505 22.5713C167.597 23.4794 167.143 24.8414 167.143 26.5926V34.5704H164.225V18.4852H167.014V21.2093C167.532 20.2364 168.311 19.5229 169.284 19.0689Z" fill="white"/>
<path d="M186.018 33.5323C185.629 33.9214 185.045 34.1809 184.461 34.3754C183.813 34.57 183.229 34.6349 182.516 34.6349C180.894 34.6349 179.662 34.1809 178.754 33.3377C177.846 32.4945 177.457 31.2622 177.457 29.6407V20.8846H174.732V18.4848H177.457V14.9824H180.375V18.4848H184.98V20.8846H180.375V29.511C180.375 30.3541 180.57 31.0676 181.024 31.5216C181.478 31.9756 182.062 32.2351 182.905 32.2351C183.813 32.2351 184.526 31.9756 185.175 31.4568L186.018 33.5323Z" fill="white"/>
<path d="M97.7446 65.0543C96.2528 64.5354 95.0854 63.9517 94.2422 63.1734L95.3448 60.8384C96.1231 61.5519 97.1609 62.1356 98.4581 62.5896C99.6904 63.0437 100.988 63.2382 102.35 63.2382C104.101 63.2382 105.398 62.9139 106.241 62.3302C107.084 61.7465 107.538 60.9682 107.538 59.9953C107.538 59.2818 107.279 58.6981 106.825 58.2441C106.371 57.79 105.787 57.4657 105.074 57.2063C104.36 56.9469 103.387 56.6874 102.155 56.3631C100.598 55.974 99.3012 55.5848 98.3283 55.1956C97.3554 54.8065 96.5122 54.2228 95.7988 53.4444C95.0853 52.6661 94.7611 51.5635 94.7611 50.2663C94.7611 49.1637 95.0853 48.126 95.6691 47.2179C96.2528 46.3099 97.1608 45.5964 98.3932 45.0776C99.6255 44.5587 101.117 44.2344 102.869 44.2344C104.101 44.2344 105.333 44.3641 106.566 44.6884C107.798 45.0127 108.836 45.4667 109.679 46.0504L108.706 48.4502C107.798 47.8665 106.89 47.4774 105.852 47.1531C104.879 46.8936 103.841 46.699 102.869 46.699C101.182 46.699 99.8849 47.0233 99.0418 47.6071C98.1986 48.2557 97.7446 49.034 97.7446 50.0069C97.7446 50.7203 98.004 51.3041 98.4581 51.7581C98.9121 52.2121 99.5607 52.5364 100.274 52.7958C100.988 53.0553 101.96 53.3147 103.193 53.5742C104.749 53.9633 106.047 54.3525 107.019 54.7416C107.992 55.1308 108.836 55.7145 109.484 56.4928C110.198 57.2712 110.522 58.3089 110.522 59.671C110.522 60.7736 110.198 61.8113 109.614 62.7194C109.03 63.6274 108.122 64.3409 106.89 64.8597C105.657 65.3786 104.166 65.638 102.35 65.638C100.728 65.7678 99.1715 65.5083 97.7446 65.0543Z" fill="white"/>
<path d="M128.812 58.5036H115.84C116.034 59.9305 116.618 61.0331 117.721 61.8763C118.758 62.7195 120.056 63.1735 121.677 63.1735C123.558 63.1735 125.115 62.5249 126.282 61.2277L127.904 63.1086C127.19 63.9518 126.282 64.6004 125.179 65.0544C124.077 65.5084 122.909 65.703 121.612 65.703C119.926 65.703 118.434 65.3787 117.137 64.6653C115.84 63.9518 114.802 62.9789 114.089 61.7466C113.375 60.5142 113.051 59.0873 113.051 57.5307C113.051 55.9741 113.375 54.612 114.089 53.3148C114.802 52.0825 115.71 51.1096 116.942 50.3962C118.175 49.6827 119.537 49.3584 121.029 49.3584C122.585 49.3584 123.882 49.6827 125.115 50.3962C126.282 51.1096 127.255 52.0825 127.904 53.3148C128.552 54.5472 128.941 55.9741 128.941 57.5956C128.877 57.855 128.877 58.1793 128.812 58.5036ZM117.526 53.1203C116.618 53.9634 116.034 55.066 115.905 56.4281H126.088C125.958 55.066 125.374 53.9634 124.466 53.1203C123.558 52.2771 122.391 51.8231 120.964 51.8231C119.602 51.8879 118.434 52.2771 117.526 53.1203Z" fill="white"/>
<path d="M146.195 51.1744C147.363 52.3419 148.011 54.0931 148.011 56.3632V65.5733H145.092V56.7524C145.092 55.1957 144.703 54.0283 143.99 53.2499C143.276 52.4716 142.174 52.0825 140.812 52.0825C139.255 52.0825 138.023 52.5365 137.115 53.4445C136.207 54.3526 135.753 55.6498 135.753 57.401V65.6381H132.834V49.6827H135.623V52.0825C136.207 51.2393 136.985 50.6556 137.958 50.2015C138.931 49.7475 140.098 49.5529 141.331 49.5529C143.406 49.4232 145.028 50.007 146.195 51.1744Z" fill="white"/>
<path d="M168.506 43.1967V65.5084H165.717V62.9789C165.068 63.8869 164.29 64.5355 163.252 64.9895C162.279 65.4435 161.177 65.703 160.009 65.703C158.453 65.703 157.091 65.3787 155.858 64.6652C154.626 63.9518 153.653 63.0437 153.005 61.8114C152.291 60.5791 151.967 59.1522 151.967 57.5307C151.967 55.9092 152.291 54.4823 153.005 53.3148C153.718 52.0825 154.626 51.1096 155.858 50.461C157.091 49.7475 158.453 49.4232 160.009 49.4232C161.177 49.4232 162.215 49.6178 163.188 50.0718C164.16 50.5258 164.939 51.1096 165.587 51.9527V43.1318H168.506V43.1967ZM163.058 62.46C163.901 62.006 164.55 61.3574 165.004 60.4493C165.458 59.6062 165.717 58.6333 165.717 57.5307C165.717 56.4281 165.458 55.4552 165.004 54.612C164.55 53.7688 163.901 53.1202 163.058 52.6662C162.215 52.2122 161.307 51.9527 160.334 51.9527C159.296 51.9527 158.388 52.2122 157.61 52.6662C156.766 53.1202 156.183 53.7688 155.664 54.612C155.21 55.4552 154.95 56.4281 154.95 57.5307C154.95 58.6333 155.21 59.6062 155.664 60.4493C156.118 61.2925 156.766 61.9411 157.61 62.46C158.453 62.914 159.361 63.1735 160.334 63.1735C161.307 63.1735 162.215 62.9789 163.058 62.46Z" fill="white"/>
<path d="M188.353 58.5036H175.381C175.575 59.9305 176.159 61.0331 177.262 61.8763C178.299 62.7195 179.597 63.1735 181.218 63.1735C183.099 63.1735 184.656 62.5249 185.823 61.2277L187.445 63.1086C186.731 63.9518 185.823 64.6004 184.721 65.0544C183.618 65.5084 182.45 65.703 181.153 65.703C179.467 65.703 177.975 65.3787 176.678 64.6653C175.381 63.9518 174.343 62.9789 173.63 61.7466C172.916 60.5142 172.592 59.0873 172.592 57.5307C172.592 55.9741 172.916 54.612 173.63 53.3148C174.343 52.0825 175.251 51.1096 176.483 50.3962C177.716 49.6827 179.078 49.3584 180.57 49.3584C182.126 49.3584 183.423 49.6827 184.656 50.3962C185.823 51.1096 186.796 52.0825 187.445 53.3148C188.093 54.5472 188.482 55.9741 188.482 57.5956C188.418 57.855 188.418 58.1793 188.353 58.5036ZM177.067 53.1203C176.159 53.9634 175.575 55.066 175.446 56.4281H185.693C185.564 55.066 184.98 53.9634 184.072 53.1203C183.164 52.2771 181.996 51.8231 180.57 51.8231C179.143 51.8879 177.975 52.2771 177.067 53.1203Z" fill="white"/>
<path d="M197.434 50.1363C198.407 49.6823 199.639 49.4229 201.001 49.4229V52.2118C200.872 52.2118 200.612 52.2118 200.353 52.2118C198.796 52.2118 197.564 52.6658 196.656 53.6387C195.748 54.5468 195.294 55.9088 195.294 57.66V65.6378H192.375V49.6823H195.164V52.3415C195.683 51.3686 196.461 50.6552 197.434 50.1363Z" fill="white"/>
<path d="M76.664 38.332C76.664 17.1878 59.4763 0 38.332 0C17.1878 0 0 17.1878 0 38.332C0 59.4763 17.1229 76.664 38.332 76.664V92.4898L65.2488 65.6379C72.2536 58.6979 76.664 49.0339 76.664 38.332ZM55.5198 55.909L38.332 73.0968V62.9138C24.7764 62.9138 13.7502 51.8877 13.7502 38.332C13.7502 24.7764 24.7764 13.7502 38.332 13.7502C51.8877 13.7502 62.9138 24.7764 62.9138 38.332C62.9138 45.1423 60.1897 51.2391 55.7144 55.7144L55.5198 55.909Z" fill="white"/>
</svg>
