<svg width="202" height="93" viewBox="0 0 202 93" fill="none" xmlns="http://www.w3.org/2000/svg">
<path d="M97.7446 33.9864C96.2528 33.4676 95.0854 32.8838 94.2422 32.1055L95.3448 29.7706C96.1231 30.484 97.1609 31.0678 98.4581 31.5218C99.6904 31.9758 100.988 32.1704 102.35 32.1704C104.101 32.1704 105.398 31.8461 106.241 31.2623C107.084 30.6786 107.538 29.9003 107.538 28.9274C107.538 28.2139 107.279 27.6302 106.825 27.1762C106.371 26.7222 105.787 26.3979 105.074 26.1384C104.36 25.879 103.387 25.6196 102.155 25.2953C100.598 24.9061 99.3012 24.5169 98.3283 24.1278C97.3554 23.7386 96.5122 23.1549 95.7988 22.3766C95.0853 21.5983 94.7611 20.4956 94.7611 19.1984C94.7611 18.0958 95.0853 17.0581 95.6691 16.15C96.2528 15.242 97.1608 14.5286 98.3932 14.0097C99.6255 13.4908 101.117 13.1665 102.869 13.1665C104.101 13.1665 105.333 13.2962 106.566 13.6205C107.798 13.9448 108.836 14.3988 109.679 14.9826L108.706 17.3824C107.798 16.7986 106.89 16.4095 105.852 16.0852C104.879 15.8257 103.841 15.6312 102.869 15.6312C101.182 15.6312 99.8849 15.9555 99.0418 16.5392C98.1986 17.1878 97.7446 17.9661 97.7446 18.939C97.7446 19.6525 98.004 20.2362 98.4581 20.6902C98.9121 21.1442 99.5607 21.4685 100.274 21.728C100.988 21.9874 101.96 22.2469 103.193 22.5063C104.749 22.8954 106.047 23.2846 107.019 23.6738C107.992 24.0629 108.836 24.6467 109.484 25.425C110.198 26.2033 110.522 27.241 110.522 28.6031C110.522 29.7057 110.198 30.7435 109.614 31.6515C109.03 32.5595 108.122 33.273 106.89 33.7919C105.657 34.3107 104.166 34.5702 102.35 34.5702C100.728 34.6999 99.1715 34.4405 97.7446 33.9864Z" fill="#232323"/>
<path d="M139.19 20.1066C140.358 21.274 140.942 23.0252 140.942 25.2953V34.5054H138.023V25.6196C138.023 24.063 137.634 22.8955 136.985 22.1172C136.272 21.3389 135.234 20.9497 133.937 20.9497C132.445 20.9497 131.278 21.4037 130.434 22.3118C129.591 23.2198 129.137 24.517 129.137 26.2682V34.5054H126.219V25.6196C126.219 24.063 125.829 22.8955 125.181 22.1172C124.467 21.3389 123.43 20.9497 122.132 20.9497C120.641 20.9497 119.473 21.4037 118.63 22.3118C117.787 23.2198 117.333 24.517 117.333 26.2682V34.5054H114.414V18.4851H117.203V20.8849C117.787 20.0417 118.565 19.458 119.473 19.0039C120.446 18.5499 121.484 18.3553 122.716 18.3553C123.948 18.3553 125.051 18.6148 126.024 19.1337C126.997 19.6525 127.71 20.366 128.229 21.3389C128.813 20.4309 129.656 19.7174 130.759 19.1985C131.861 18.6796 133.029 18.4202 134.391 18.4202C136.401 18.3553 138.023 18.9391 139.19 20.1066Z" fill="#232323"/>
<path d="M157.156 19.9767C158.324 21.0794 158.907 22.7008 158.907 24.8412V34.5053H156.183V32.4298C155.729 33.1432 155.016 33.727 154.108 34.1161C153.2 34.5053 152.162 34.6999 150.93 34.6999C149.113 34.6999 147.687 34.2459 146.649 33.4027C145.546 32.5595 145.027 31.392 145.027 30.03C145.027 28.6679 145.546 27.5005 146.584 26.6573C147.622 25.8141 149.243 25.3601 151.448 25.3601H156.053V24.7764C156.053 23.544 155.664 22.5711 154.951 21.9225C154.237 21.2739 153.135 20.9496 151.773 20.9496C150.8 20.9496 149.892 21.0794 148.984 21.4037C148.076 21.728 147.297 22.1171 146.714 22.636L145.481 20.4956C146.325 19.847 147.297 19.3281 148.4 19.0039C149.568 18.6796 150.735 18.485 152.032 18.485C154.302 18.3553 155.989 18.8741 157.156 19.9767ZM154.302 31.6515C155.081 31.1326 155.664 30.484 156.053 29.576V27.3707H151.578C149.113 27.3707 147.881 28.2139 147.881 29.8354C147.881 30.6137 148.205 31.2623 148.789 31.7163C149.438 32.1704 150.281 32.4298 151.384 32.4298C152.551 32.4298 153.459 32.1704 154.302 31.6515Z" fill="#232323"/>
<path d="M169.284 19.0688C170.257 18.6148 171.489 18.3553 172.851 18.3553V21.1443C172.721 21.1443 172.462 21.1443 172.202 21.1443C170.646 21.1443 169.413 21.5983 168.505 22.5712C167.597 23.4793 167.143 24.8413 167.143 26.5925V34.5702H164.225V18.4851H167.014V21.2092C167.532 20.2363 168.311 19.5228 169.284 19.0688Z" fill="#232323"/>
<path d="M186.018 33.5325C185.629 33.9217 185.045 34.1811 184.461 34.3757C183.813 34.5703 183.229 34.6351 182.516 34.6351C180.894 34.6351 179.662 34.1811 178.754 33.3379C177.846 32.4948 177.457 31.2624 177.457 29.6409V20.8849H174.732V18.4851H177.457V14.9827H180.375V18.4851H184.98V20.8849H180.375V29.5112C180.375 30.3544 180.57 31.0678 181.024 31.5219C181.478 31.9759 182.062 32.2353 182.905 32.2353C183.813 32.2353 184.526 31.9759 185.175 31.457L186.018 33.5325Z" fill="#232323"/>
<path d="M97.7446 65.0542C96.2528 64.5353 95.0854 63.9516 94.2422 63.1733L95.3448 60.8383C96.1231 61.5518 97.1609 62.1355 98.4581 62.5895C99.6904 63.0435 100.988 63.2381 102.35 63.2381C104.101 63.2381 105.398 62.9138 106.241 62.3301C107.084 61.7463 107.538 60.968 107.538 59.9951C107.538 59.2817 107.279 58.6979 106.825 58.2439C106.371 57.7899 105.787 57.4656 105.074 57.2062C104.36 56.9467 103.387 56.6873 102.155 56.363C100.598 55.9738 99.3012 55.5847 98.3283 55.1955C97.3554 54.8064 96.5122 54.2226 95.7988 53.4443C95.0853 52.666 94.7611 51.5634 94.7611 50.2662C94.7611 49.1636 95.0853 48.1258 95.6691 47.2178C96.2528 46.3098 97.1608 45.5963 98.3932 45.0774C99.6255 44.5586 101.117 44.2343 102.869 44.2343C104.101 44.2343 105.333 44.364 106.566 44.6883C107.798 45.0126 108.836 45.4666 109.679 46.0503L108.706 48.4501C107.798 47.8664 106.89 47.4772 105.852 47.1529C104.879 46.8935 103.841 46.6989 102.869 46.6989C101.182 46.6989 99.8849 47.0232 99.0418 47.607C98.1986 48.2555 97.7446 49.0339 97.7446 50.0068C97.7446 50.7202 98.004 51.304 98.4581 51.758C98.9121 52.212 99.5607 52.5363 100.274 52.7957C100.988 53.0552 101.96 53.3146 103.193 53.574C104.749 53.9632 106.047 54.3523 107.019 54.7415C107.992 55.1307 108.836 55.7144 109.484 56.4927C110.198 57.271 110.522 58.3088 110.522 59.6708C110.522 60.7735 110.198 61.8112 109.614 62.7192C109.03 63.6273 108.122 64.3407 106.89 64.8596C105.657 65.3785 104.166 65.6379 102.35 65.6379C100.728 65.7676 99.1715 65.5082 97.7446 65.0542Z" fill="#1380F6"/>
<path d="M128.812 58.5034H115.84C116.034 59.9303 116.618 61.0329 117.721 61.8761C118.758 62.7192 120.056 63.1732 121.677 63.1732C123.558 63.1732 125.115 62.5247 126.282 61.2275L127.904 63.1084C127.19 63.9516 126.282 64.6002 125.179 65.0542C124.077 65.5082 122.909 65.7028 121.612 65.7028C119.926 65.7028 118.434 65.3785 117.137 64.665C115.84 63.9516 114.802 62.9787 114.089 61.7463C113.375 60.514 113.051 59.0871 113.051 57.5305C113.051 55.9738 113.375 54.6118 114.089 53.3146C114.802 52.0823 115.71 51.1094 116.942 50.3959C118.175 49.6825 119.537 49.3582 121.029 49.3582C122.585 49.3582 123.882 49.6825 125.115 50.3959C126.282 51.1094 127.255 52.0823 127.904 53.3146C128.552 54.5469 128.941 55.9738 128.941 57.5953C128.877 57.8548 128.877 58.1791 128.812 58.5034ZM117.526 53.12C116.618 53.9632 116.034 55.0658 115.905 56.4279H126.088C125.958 55.0658 125.374 53.9632 124.466 53.12C123.558 52.2768 122.391 51.8228 120.964 51.8228C119.602 51.8877 118.434 52.2768 117.526 53.12Z" fill="#1380F6"/>
<path d="M146.195 51.1742C147.363 52.3417 148.011 54.0929 148.011 56.363V65.573H145.092V56.7521C145.092 55.1955 144.703 54.028 143.99 53.2497C143.276 52.4714 142.174 52.0822 140.812 52.0822C139.255 52.0822 138.023 52.5362 137.115 53.4443C136.207 54.3523 135.753 55.6495 135.753 57.4007V65.6379H132.834V49.6824H135.623V52.0822C136.207 51.2391 136.985 50.6553 137.958 50.2013C138.931 49.7473 140.098 49.5527 141.331 49.5527C143.406 49.423 145.028 50.0067 146.195 51.1742Z" fill="#1380F6"/>
<path d="M168.506 43.1966V65.5083H165.717V62.9787C165.068 63.8868 164.29 64.5354 163.252 64.9894C162.279 65.4434 161.177 65.7029 160.009 65.7029C158.453 65.7029 157.091 65.3786 155.858 64.6651C154.626 63.9516 153.653 63.0436 153.005 61.8113C152.291 60.5789 151.967 59.152 151.967 57.5305C151.967 55.9091 152.291 54.4821 153.005 53.3147C153.718 52.0823 154.626 51.1094 155.858 50.4609C157.091 49.7474 158.453 49.4231 160.009 49.4231C161.177 49.4231 162.215 49.6177 163.188 50.0717C164.16 50.5257 164.939 51.1094 165.587 51.9526V43.1317H168.506V43.1966ZM163.058 62.4599C163.901 62.0059 164.55 61.3573 165.004 60.4492C165.458 59.6061 165.717 58.6332 165.717 57.5305C165.717 56.4279 165.458 55.455 165.004 54.6119C164.55 53.7687 163.901 53.1201 163.058 52.6661C162.215 52.2121 161.307 51.9526 160.334 51.9526C159.296 51.9526 158.388 52.2121 157.61 52.6661C156.766 53.1201 156.183 53.7687 155.664 54.6119C155.21 55.455 154.95 56.4279 154.95 57.5305C154.95 58.6332 155.21 59.6061 155.664 60.4492C156.118 61.2924 156.766 61.941 157.61 62.4599C158.453 62.9139 159.361 63.1733 160.334 63.1733C161.307 63.1733 162.215 62.9788 163.058 62.4599Z" fill="#1380F6"/>
<path d="M188.353 58.5034H175.381C175.575 59.9303 176.159 61.0329 177.262 61.8761C178.299 62.7192 179.597 63.1732 181.218 63.1732C183.099 63.1732 184.656 62.5247 185.823 61.2275L187.445 63.1084C186.731 63.9516 185.823 64.6002 184.721 65.0542C183.618 65.5082 182.45 65.7028 181.153 65.7028C179.467 65.7028 177.975 65.3785 176.678 64.665C175.381 63.9516 174.343 62.9787 173.63 61.7463C172.916 60.514 172.592 59.0871 172.592 57.5305C172.592 55.9738 172.916 54.6118 173.63 53.3146C174.343 52.0823 175.251 51.1094 176.483 50.3959C177.716 49.6825 179.078 49.3582 180.57 49.3582C182.126 49.3582 183.423 49.6825 184.656 50.3959C185.823 51.1094 186.796 52.0823 187.445 53.3146C188.093 54.5469 188.482 55.9738 188.482 57.5953C188.418 57.8548 188.418 58.1791 188.353 58.5034ZM177.067 53.12C176.159 53.9632 175.575 55.0658 175.446 56.4279H185.693C185.564 55.0658 184.98 53.9632 184.072 53.12C183.164 52.2768 181.996 51.8228 180.57 51.8228C179.143 51.8877 177.975 52.2768 177.067 53.12Z" fill="#1380F6"/>
<path d="M197.434 50.1366C198.407 49.6825 199.639 49.4231 201.001 49.4231V52.2121C200.872 52.2121 200.612 52.2121 200.353 52.2121C198.796 52.2121 197.564 52.6661 196.656 53.639C195.748 54.547 195.294 55.9091 195.294 57.6603V65.638H192.375V49.6825H195.164V52.3418C195.683 51.3689 196.461 50.6554 197.434 50.1366Z" fill="#1380F6"/>
<path d="M76.664 38.332C76.664 17.1878 59.4763 0 38.332 0C17.1878 0 0 17.1878 0 38.332C0 59.4763 17.1229 76.664 38.332 76.664V92.4898L65.2488 65.6379C72.2536 58.6979 76.664 49.0339 76.664 38.332ZM55.5198 55.909L38.332 73.0968V62.9138C24.7764 62.9138 13.7502 51.8877 13.7502 38.332C13.7502 24.7764 24.7764 13.7502 38.332 13.7502C51.8877 13.7502 62.9138 24.7764 62.9138 38.332C62.9138 45.1423 60.1897 51.2391 55.7144 55.7144L55.5198 55.909Z" fill="#1380F6"/>
</svg>
