<svg width="257" height="178" viewBox="0 0 257 178" fill="none" xmlns="http://www.w3.org/2000/svg">
<path d="M4.3 176.7C2.5 176.1 1.1 175.3 0 174.4L1.4 171.5C2.4 172.4 3.7 173.1 5.2 173.7C6.7 174.3 8.3 174.5 10 174.5C12.1 174.5 13.8 174.1 14.8 173.4C15.8 172.7 16.4 171.7 16.4 170.5C16.4 169.6 16.1 168.9 15.5 168.3C14.9 167.7 14.2 167.3 13.4 167C12.5 166.7 11.3 166.4 9.8 166C7.9 165.5 6.3 165.1 5.1 164.6C3.9 164.1 2.9 163.4 2 162.4C1.1 161.4 0.699997 160.1 0.699997 158.5C0.699997 157.1 1.1 155.9 1.8 154.8C2.5 153.7 3.6 152.8 5.1 152.1C6.6 151.4 8.4 151.1 10.6 151.1C12.1 151.1 13.6 151.3 15.1 151.7C16.6 152.1 17.9 152.7 18.9 153.4L17.7 156.4C16.6 155.7 15.5 155.2 14.2 154.8C13 154.4 11.8 154.3 10.6 154.3C8.5 154.3 6.9 154.7 5.9 155.4C4.9 156.2 4.3 157.2 4.3 158.4C4.3 159.3 4.6 160 5.2 160.6C5.8 161.2 6.5 161.6 7.4 161.9C8.3 162.2 9.5 162.5 11 162.9C12.9 163.4 14.5 163.8 15.7 164.3C16.9 164.8 17.9 165.5 18.8 166.4C19.7 167.4 20.1 168.7 20.1 170.3C20.1 171.7 19.7 172.9 19 174C18.3 175.1 17.1 176 15.6 176.7C14.1 177.4 12.2 177.7 10 177.7C8 177.7 6.1 177.4 4.3 176.7Z" fill="black"/>
<path d="M55.2992 159.7C56.6992 161.1 57.4992 163.3 57.4992 166.1V177.4H53.8992V166.5C53.8992 164.6 53.4992 163.2 52.5992 162.2C51.6992 161.2 50.4992 160.8 48.7992 160.8C46.9992 160.8 45.5992 161.4 44.4992 162.5C43.3992 163.6 42.8992 165.2 42.8992 167.3V177.4H39.2992V166.5C39.2992 164.6 38.8992 163.2 37.9992 162.2C37.0992 161.2 35.8992 160.8 34.1992 160.8C32.3992 160.8 30.9992 161.4 29.8992 162.5C28.7992 163.6 28.2992 165.2 28.2992 167.3V177.4H24.6992V157.7H28.0992V160.6C28.7992 159.6 29.7992 158.8 30.8992 158.3C32.0992 157.8 33.3992 157.5 34.8992 157.5C36.3992 157.5 37.7992 157.8 38.9992 158.4C40.1992 159 41.0992 159.9 41.6992 161.1C42.3992 160 43.4992 159.1 44.7992 158.4C46.0992 157.7 47.5992 157.4 49.2992 157.4C51.8992 157.6 53.7992 158.3 55.2992 159.7Z" fill="black"/>
<path d="M77.4 159.6C78.8 160.9 79.6 162.9 79.6 165.6V177.4H76.2V174.8C75.6 175.7 74.8 176.4 73.7 176.9C72.6 177.4 71.3 177.6 69.8 177.6C67.6 177.6 65.8 177.1 64.5 176C63.2 174.9 62.5 173.5 62.5 171.8C62.5 170.1 63.1 168.7 64.4 167.6C65.7 166.6 67.7 166 70.4 166H76V165.3C76 163.8 75.6 162.6 74.7 161.8C73.8 161 72.5 160.6 70.8 160.6C69.6 160.6 68.5 160.8 67.4 161.2C66.3 161.6 65.4 162.1 64.6 162.7L63.1 160C64.1 159.2 65.3 158.6 66.7 158.1C68.1 157.7 69.6 157.5 71.2 157.5C73.8 157.6 75.9 158.2 77.4 159.6ZM73.8 173.9C74.8 173.3 75.5 172.4 75.9 171.3V168.6H70.4C67.4 168.6 65.9 169.6 65.9 171.6C65.9 172.6 66.3 173.4 67 173.9C67.8 174.5 68.8 174.8 70.2 174.8C71.7 174.8 72.8 174.5 73.8 173.9Z" fill="black"/>
<path d="M92.1996 158.4C93.3996 157.8 94.8996 157.5 96.5996 157.5V160.9C96.3996 160.9 96.0996 160.9 95.7996 160.9C93.8996 160.9 92.3996 161.5 91.2996 162.6C90.1996 163.7 89.6996 165.4 89.6996 167.5V177.3H86.0996V157.7H89.4996V161C90.0996 159.9 90.9996 159 92.1996 158.4Z" fill="black"/>
<path d="M112.9 176.2C112.4 176.6 111.7 177 111 177.2C110.2 177.4 109.4 177.6 108.6 177.6C106.6 177.6 105.1 177.1 104 176C102.9 174.9 102.4 173.4 102.4 171.4V160.7H99V157.7H102.3V153.4H105.9V157.7H111.5V160.6H105.9V171.2C105.9 172.3 106.2 173.1 106.7 173.6C107.2 174.1 108 174.5 109 174.5C110.1 174.5 111 174.2 111.8 173.6L112.9 176.2Z" fill="black"/>
<path d="M129.4 176.7C127.6 176.1 126.2 175.3 125.1 174.4L126.5 171.5C127.5 172.4 128.8 173.1 130.3 173.7C131.8 174.3 133.4 174.5 135.1 174.5C137.2 174.5 138.9 174.1 139.9 173.4C140.9 172.7 141.5 171.7 141.5 170.5C141.5 169.6 141.2 168.9 140.6 168.3C140 167.7 139.3 167.3 138.5 167C137.6 166.7 136.4 166.4 134.9 166C133 165.5 131.4 165.1 130.2 164.6C129 164.1 128 163.4 127.1 162.4C126.2 161.4 125.8 160.1 125.8 158.5C125.8 157.1 126.2 155.9 126.9 154.8C127.6 153.7 128.7 152.8 130.2 152.1C131.7 151.4 133.5 151.1 135.7 151.1C137.2 151.1 138.7 151.3 140.2 151.7C141.7 152.1 143 152.7 144 153.4L142.8 156.4C141.7 155.7 140.6 155.2 139.3 154.8C138.1 154.4 136.9 154.3 135.7 154.3C133.6 154.3 132 154.7 131 155.4C130 156.2 129.4 157.2 129.4 158.4C129.4 159.3 129.7 160 130.3 160.6C130.9 161.2 131.6 161.6 132.5 161.9C133.4 162.2 134.6 162.5 136.1 162.9C138 163.4 139.6 163.8 140.8 164.3C142 164.8 143 165.5 143.9 166.4C144.8 167.4 145.2 168.7 145.2 170.3C145.2 171.7 144.8 172.9 144.1 174C143.4 175.1 142.2 176 140.7 176.7C139.2 177.4 137.3 177.7 135.1 177.7C133.1 177.7 131.2 177.4 129.4 176.7Z" fill="#fff"/>
<path d="M167.599 168.7H151.699C151.899 170.4 152.699 171.8 153.999 172.9C155.299 173.9 156.899 174.5 158.799 174.5C161.099 174.5 162.999 173.7 164.499 172.1L166.499 174.4C165.599 175.4 164.499 176.2 163.199 176.8C161.899 177.3 160.399 177.6 158.799 177.6C156.699 177.6 154.899 177.2 153.299 176.3C151.699 175.4 150.499 174.3 149.599 172.7C148.699 171.1 148.299 169.4 148.299 167.5C148.299 165.6 148.699 163.9 149.599 162.4C150.499 160.9 151.599 159.7 153.099 158.8C154.599 157.9 156.299 157.5 158.199 157.5C160.099 157.5 161.699 157.9 163.199 158.8C164.699 159.7 165.799 160.8 166.599 162.4C167.399 163.9 167.799 165.7 167.799 167.7C167.699 167.9 167.699 168.3 167.599 168.7ZM153.699 162.1C152.599 163.1 151.899 164.5 151.699 166.2H164.299C164.099 164.5 163.399 163.2 162.299 162.1C161.199 161.1 159.699 160.5 157.999 160.5C156.299 160.6 154.899 161.1 153.699 162.1Z" fill="#fff"/>
<path d="M189 159.7C190.5 161.1 191.2 163.3 191.2 166V177.3H187.6V166.4C187.6 164.5 187.1 163.1 186.2 162.1C185.3 161.1 184 160.7 182.3 160.7C180.4 160.7 178.9 161.3 177.7 162.4C176.6 163.5 176 165.1 176 167.2V177.3H172.4V157.7H175.8V160.7C176.5 159.7 177.5 158.9 178.7 158.4C179.9 157.9 181.3 157.6 182.9 157.6C185.6 157.6 187.6 158.3 189 159.7Z" fill="#fff"/>
<path d="M216.4 149.9V177.4H213V174.3C212.2 175.4 211.2 176.2 210 176.8C208.8 177.4 207.5 177.7 206 177.7C204.1 177.7 202.4 177.3 200.9 176.4C199.4 175.6 198.2 174.4 197.4 172.9C196.5 171.4 196.1 169.6 196.1 167.7C196.1 165.8 196.5 164 197.4 162.5C198.3 161 199.4 159.8 200.9 159C202.4 158.2 204.1 157.7 206 157.7C207.4 157.7 208.7 158 209.9 158.5C211.1 159 212.1 159.8 212.9 160.8V150H216.4V149.9ZM209.7 173.6C210.7 173 211.5 172.2 212.1 171.2C212.7 170.2 213 168.9 213 167.6C213 166.3 212.7 165 212.1 164C211.5 163 210.7 162.1 209.7 161.6C208.7 161.1 207.6 160.7 206.3 160.7C205 160.7 203.9 161 202.9 161.6C201.9 162.2 201.1 163 200.5 164C199.9 165 199.6 166.3 199.6 167.6C199.6 168.9 199.9 170.2 200.5 171.2C201.1 172.2 201.9 173.1 202.9 173.6C203.9 174.2 205 174.5 206.3 174.5C207.6 174.5 208.7 174.2 209.7 173.6Z" fill="#fff"/>
<path d="M240.8 168.7H224.9C225.1 170.4 225.9 171.8 227.2 172.9C228.5 173.9 230.1 174.5 232 174.5C234.3 174.5 236.2 173.7 237.7 172.1L239.7 174.4C238.8 175.4 237.7 176.2 236.4 176.8C235.1 177.3 233.6 177.6 232 177.6C229.9 177.6 228.1 177.2 226.5 176.3C224.9 175.4 223.7 174.3 222.8 172.7C221.9 171.1 221.5 169.4 221.5 167.5C221.5 165.6 221.9 163.9 222.8 162.4C223.7 160.9 224.8 159.7 226.3 158.8C227.8 157.9 229.5 157.5 231.4 157.5C233.3 157.5 234.9 157.9 236.4 158.8C237.9 159.7 239 160.8 239.8 162.4C240.6 163.9 241 165.7 241 167.7C240.9 167.9 240.9 168.3 240.8 168.7ZM226.9 162.1C225.8 163.1 225.1 164.5 224.9 166.2H237.5C237.3 164.5 236.6 163.2 235.5 162.1C234.4 161.1 232.9 160.5 231.2 160.5C229.5 160.6 228.1 161.1 226.9 162.1Z" fill="#fff"/>
<path d="M252 158.4C253.2 157.8 254.7 157.5 256.4 157.5V160.9C256.2 160.9 255.9 160.9 255.6 160.9C253.7 160.9 252.2 161.5 251.1 162.6C250 163.7 249.5 165.4 249.5 167.5V177.3H245.9V157.7H249.3V161C249.8 159.9 250.7 159 252 158.4Z" fill="#fff"/>
<path d="M184.8 59.1C184.8 26.5 158.3 0 125.7 0C93.0996 0 66.5996 26.5 66.5996 59.1C66.5996 91.7 92.9996 118.2 125.7 118.2V142.6L167.2 101.2C178 90.5 184.8 75.6 184.8 59.1ZM152.2 86.2L125.7 112.7V97C104.8 97 87.7996 80 87.7996 59.1C87.7996 38.2 104.8 21.2 125.7 21.2C146.6 21.2 163.6 38.2 163.6 59.1C163.6 69.6 159.4 79 152.5 85.9L152.2 86.2Z" fill="#fff"/>
</svg>
